#N canvas 20 92 731 634 10;
#X obj 359 37 inlet~;
#X obj 362 511 outlet~;
#X floatatom 432 170 5 0 0 0 - - -;
#X obj 432 136 r delay_time;
#X obj 674 44 r fdelay;
#X obj 470 317 lop~ 1000;
#X obj 437 59 delwrite~ del_buffer-\$0 2000;
#X obj 657 161 *~;
#X obj 673 120 vline~;
#X msg 674 87 \$1 20;
#X obj 429 267 delread4~ del_buffer-\$0 200;
#X obj 429 230 vline~;
#X msg 430 197 \$1 100;
#X obj 362 444 *~;
#X obj 399 445 *~;
#X obj 257 176 r wet;
#X obj 256 276 vline~;
#X msg 257 243 \$1 20;
#X floatatom 257 210 5 0 0 0 - - -;
#X obj 190 234 t b f;
#X floatatom 190 327 5 0 0 0 - - -;
#X obj 189 386 vline~;
#X msg 190 353 \$1 20;
#X obj 202 283 -;
#X msg 174 261 1;
#X connect 0 0 6 0;
#X connect 0 0 13 0;
#X connect 2 0 12 0;
#X connect 3 0 2 0;
#X connect 4 0 9 0;
#X connect 5 0 7 0;
#X connect 7 0 6 0;
#X connect 8 0 7 1;
#X connect 9 0 8 0;
#X connect 10 0 5 0;
#X connect 10 0 14 0;
#X connect 11 0 10 0;
#X connect 12 0 11 0;
#X connect 13 0 1 0;
#X connect 14 0 1 0;
#X connect 15 0 18 0;
#X connect 16 0 14 1;
#X connect 17 0 16 0;
#X connect 18 0 17 0;
#X connect 18 0 19 0;
#X connect 19 0 24 0;
#X connect 19 1 23 1;
#X connect 20 0 22 0;
#X connect 21 0 13 1;
#X connect 22 0 21 0;
#X connect 23 0 20 0;
#X connect 24 0 23 0;
