#N canvas 304 261 644 442 10;
#X obj 90 29 inlet;
#X obj 163 319 outlet~;
#X floatatom 92 69 5 0 0 0 - - -;
#X obj 93 112 mtof~;
#X floatatom 220 64 5 0 0 0 - - -;
#X floatatom 302 62 5 0 0 0 - - -;
#X obj 161 236 +~;
#X obj 163 274 osc~;
#X obj 220 27 r fmod;
#X obj 304 32 r findex;
#X msg 302 120 \$1 20;
#X obj 220 189 *~;
#X obj 302 150 vline~;
#X obj 222 119 osc~;
#X connect 0 0 2 0;
#X connect 2 0 3 0;
#X connect 3 0 6 0;
#X connect 4 0 13 0;
#X connect 5 0 10 0;
#X connect 6 0 7 0;
#X connect 7 0 1 0;
#X connect 8 0 4 0;
#X connect 9 0 5 0;
#X connect 10 0 12 0;
#X connect 11 0 6 1;
#X connect 12 0 11 1;
#X connect 13 0 11 0;
