#N canvas 321 60 771 626 12;
#X obj 107 29 inlet;
#X text 102 5 velocity;
#X obj 108 70 sel 0;
#X obj 154 310 vline~;
#X floatatom 426 266 5 0 0 0 - - -;
#X floatatom 427 312 5 0 0 0 - - -;
#X obj 426 288 / 127;
#X obj 170 82 t b f;
#X obj 155 485 outlet~;
#X text 154 507 signal envelope;
#X obj 219 184 r attack_time;
#X obj 57 186 r release_time;
#X msg 171 267 1 \$1;
#X msg 106 267 0 \$1;
#X obj 426 153 loadbang;
#X msg 426 206 0;
#X obj 427 388 vline~;
#X text 488 310 very raw velocity management. It affects only volume
but not the armonic content....so bad!;
#X msg 427 344 \$1 5;
#X obj 155 446 *~;
#X obj 106 233 int 60;
#X obj 172 233 int 40;
#X connect 0 0 2 0;
#X connect 2 0 20 0;
#X connect 2 1 7 0;
#X connect 3 0 19 0;
#X connect 4 0 6 0;
#X connect 5 0 18 0;
#X connect 6 0 5 0;
#X connect 7 0 21 0;
#X connect 7 1 4 0;
#X connect 10 0 21 1;
#X connect 11 0 20 1;
#X connect 12 0 3 0;
#X connect 13 0 3 0;
#X connect 14 0 15 0;
#X connect 15 0 4 0;
#X connect 16 0 19 1;
#X connect 18 0 16 0;
#X connect 19 0 8 0;
#X connect 20 0 13 0;
#X connect 21 0 12 0;
