#N canvas 543 180 617 355 12;
#X obj 190 30 inlet;
#X obj 155 247 outlet;
#X obj 220 248 outlet;
#X obj 290 246 outlet;
#X obj 356 246 outlet;
#X obj 190 100 pack 0 0 0;
#X obj 190 74 poly 5 1;
#X obj 187 145 route 1 2 3 4 5;
#X obj 418 247 outlet;
#X connect 0 0 6 0;
#X connect 5 0 7 0;
#X connect 6 0 5 0;
#X connect 6 1 5 1;
#X connect 6 2 5 2;
#X connect 7 0 1 0;
#X connect 7 1 2 0;
#X connect 7 2 3 0;
#X connect 7 3 4 0;
#X connect 7 4 8 0;
