#N canvas 654 151 645 433 12;
#X obj 121 105 upf.additive~;
#X obj 233 104 upf.fm~;
#X obj 119 28 inlet;
#X obj 25 56 r mode;
#X obj 25 92 hradio 15 1 0 3 empty empty empty 0 -8 0 10 -262144 -1
-1 0;
#X obj 157 166 sel 0;
#X obj 125 275 *~;
#X obj 157 231 vline~;
#X msg 157 195 1 20;
#X msg 197 195 0 20;
#X obj 254 233 vline~;
#X msg 254 197 1 20;
#X msg 294 197 0 20;
#X obj 254 168 sel 1;
#X obj 230 274 *~;
#X obj 167 343 outlet~;
#X obj 364 235 vline~;
#X msg 364 199 1 20;
#X msg 404 199 0 20;
#X obj 340 276 *~;
#X obj 343 106 upf.sottrattiva~;
#X obj 364 170 sel 2;
#X connect 0 0 6 0;
#X connect 1 0 14 0;
#X connect 2 0 0 0;
#X connect 2 0 1 0;
#X connect 2 0 20 0;
#X connect 3 0 4 0;
#X connect 4 0 5 0;
#X connect 4 0 13 0;
#X connect 4 0 21 0;
#X connect 5 0 8 0;
#X connect 5 1 9 0;
#X connect 6 0 15 0;
#X connect 7 0 6 1;
#X connect 8 0 7 0;
#X connect 9 0 7 0;
#X connect 10 0 14 1;
#X connect 11 0 10 0;
#X connect 12 0 10 0;
#X connect 13 0 11 0;
#X connect 13 1 12 0;
#X connect 14 0 15 0;
#X connect 16 0 19 1;
#X connect 17 0 16 0;
#X connect 18 0 16 0;
#X connect 19 0 15 0;
#X connect 20 0 19 0;
#X connect 21 0 17 0;
#X connect 21 1 18 0;
