#N canvas 221 276 1354 555 12;
#X floatatom 44 62 5 0 0 0 - - -;
#X obj 44 86 mtof;
#X obj 149 189 * 2;
#X obj 207 189 * 3;
#X obj 266 187 * 4;
#X obj 325 186 * 5;
#X obj 374 186 * 6;
#X obj 429 185 * 7;
#X obj 464 185 * 8;
#X obj 46 268 osc~;
#X obj 115 268 osc~;
#X obj 180 268 osc~;
#X obj 243 268 osc~;
#X obj 286 268 osc~;
#X obj 351 268 osc~;
#X obj 420 268 osc~;
#X obj 483 268 osc~;
#X obj 43 344 *~;
#X obj 108 344 *~;
#X obj 177 344 *~;
#X obj 242 344 *~;
#X obj 287 344 *~;
#X obj 353 344 *~;
#X obj 422 344 *~;
#X obj 487 344 *~;
#X obj 63 299 r a1;
#X obj 135 299 r a2;
#X obj 203 299 r a3;
#X obj 254 299 r a4;
#X obj 308 299 r a5;
#X obj 368 299 r a6;
#X obj 439 299 r a7;
#X obj 515 299 r a8;
#X obj 44 18 inlet;
#X obj 457 496 outlet~;
#X obj 314 434 *~ 1;
#X obj 558 267 osc~;
#X obj 601 267 osc~;
#X obj 666 267 osc~;
#X obj 735 267 osc~;
#X obj 798 267 osc~;
#X obj 557 343 *~;
#X obj 607 343 *~;
#X obj 668 343 *~;
#X obj 737 343 *~;
#X obj 802 343 *~;
#X obj 569 298 r a4;
#X obj 623 298 r a5;
#X obj 683 298 r a6;
#X obj 754 298 r a7;
#X obj 830 298 r a8;
#X obj 582 186 * 9;
#X obj 640 185 * 10;
#X obj 689 185 * 11;
#X obj 744 184 * 12;
#X obj 788 184 * 13;
#X obj 878 268 osc~;
#X obj 941 268 osc~;
#X obj 880 344 *~;
#X obj 945 344 *~;
#X obj 897 299 r a7;
#X obj 973 299 r a8;
#X obj 878 184 * 14;
#X obj 922 185 * 15;
#X obj 252 110 s \$0-freq;
#X obj 699 96 r \$0-freq;
#X obj 589 431 *~ 1;
#X connect 0 0 1 0;
#X connect 1 0 2 0;
#X connect 1 0 3 0;
#X connect 1 0 4 0;
#X connect 1 0 5 0;
#X connect 1 0 6 0;
#X connect 1 0 7 0;
#X connect 1 0 8 0;
#X connect 1 0 9 0;
#X connect 1 0 64 0;
#X connect 2 0 10 0;
#X connect 3 0 11 0;
#X connect 4 0 12 0;
#X connect 5 0 13 0;
#X connect 6 0 14 0;
#X connect 7 0 15 0;
#X connect 8 0 16 0;
#X connect 9 0 17 0;
#X connect 10 0 18 0;
#X connect 11 0 19 0;
#X connect 12 0 20 0;
#X connect 13 0 21 0;
#X connect 14 0 22 0;
#X connect 15 0 23 0;
#X connect 16 0 24 0;
#X connect 17 0 35 0;
#X connect 18 0 35 0;
#X connect 19 0 35 0;
#X connect 20 0 35 0;
#X connect 21 0 35 0;
#X connect 22 0 35 0;
#X connect 23 0 35 0;
#X connect 24 0 35 0;
#X connect 25 0 17 1;
#X connect 26 0 18 1;
#X connect 27 0 19 1;
#X connect 28 0 20 1;
#X connect 29 0 21 1;
#X connect 30 0 22 1;
#X connect 31 0 23 1;
#X connect 32 0 24 1;
#X connect 33 0 0 0;
#X connect 35 0 34 0;
#X connect 36 0 41 0;
#X connect 37 0 42 0;
#X connect 38 0 43 0;
#X connect 39 0 44 0;
#X connect 40 0 45 0;
#X connect 41 0 66 0;
#X connect 42 0 66 0;
#X connect 43 0 66 0;
#X connect 44 0 66 0;
#X connect 45 0 66 0;
#X connect 46 0 41 1;
#X connect 47 0 42 1;
#X connect 48 0 43 1;
#X connect 49 0 44 1;
#X connect 50 0 45 1;
#X connect 51 0 36 0;
#X connect 52 0 37 0;
#X connect 53 0 38 0;
#X connect 54 0 39 0;
#X connect 55 0 40 0;
#X connect 56 0 58 0;
#X connect 57 0 59 0;
#X connect 58 0 66 0;
#X connect 59 0 66 0;
#X connect 60 0 58 1;
#X connect 61 0 59 1;
#X connect 62 0 56 0;
#X connect 63 0 57 0;
#X connect 65 0 51 0;
#X connect 65 0 52 0;
#X connect 65 0 53 0;
#X connect 65 0 54 0;
#X connect 65 0 55 0;
#X connect 65 0 62 0;
#X connect 65 0 63 0;
#X connect 66 0 34 0;
