#N canvas 463 102 784 513 12;
#X obj 212 149 r sample_00;
#X obj 310 149 r sample_01;
#X obj 410 148 r sample_02;
#X obj 506 147 r sample_03;
#X obj 212 234 int;
#X obj 310 233 int;
#X obj 410 233 int;
#X obj 507 233 int;
#X floatatom 67 85 5 0 0 0 - - -;
#X floatatom 67 106 5 0 0 0 - - -;
#X floatatom 67 127 5 0 0 0 - - -;
#X floatatom 67 149 5 0 0 0 - - -;
#X floatatom 67 198 5 0 0 0 - - -;
#X msg 232 35 60;
#X msg 285 35 64;
#X msg 335 36 67;
#X msg 382 36 69;
#X obj 311 1 loadbang;
#X msg 429 35 200;
#X obj 212 296 makenote 100;
#X obj 310 295 makenote 100;
#X obj 410 295 makenote 100;
#X obj 508 296 makenote 100;
#X obj 212 342 pack 0 0;
#X obj 319 343 pack 0 0;
#X obj 421 344 pack 0 0;
#X obj 514 346 pack 0 0;
#X text 63 178 duration;
#X text 106 200 ms;
#X text 63 62 seq notes;
#X obj 378 447 s midi_note_sequencer;
#X connect 0 0 4 0;
#X connect 1 0 5 0;
#X connect 2 0 6 0;
#X connect 3 0 7 0;
#X connect 4 0 19 0;
#X connect 5 0 20 0;
#X connect 6 0 21 0;
#X connect 7 0 22 0;
#X connect 8 0 4 1;
#X connect 9 0 5 1;
#X connect 10 0 6 1;
#X connect 11 0 7 1;
#X connect 12 0 19 2;
#X connect 12 0 20 2;
#X connect 12 0 21 2;
#X connect 12 0 22 2;
#X connect 13 0 8 0;
#X connect 14 0 9 0;
#X connect 15 0 10 0;
#X connect 16 0 11 0;
#X connect 17 0 13 0;
#X connect 17 0 14 0;
#X connect 17 0 15 0;
#X connect 17 0 16 0;
#X connect 17 0 18 0;
#X connect 18 0 12 0;
#X connect 19 0 23 0;
#X connect 19 1 23 1;
#X connect 20 0 24 0;
#X connect 20 1 24 1;
#X connect 21 0 25 0;
#X connect 21 1 25 1;
#X connect 22 0 26 0;
#X connect 22 1 26 1;
#X connect 23 0 30 0;
#X connect 24 0 30 0;
#X connect 25 0 30 0;
#X connect 26 0 30 0;
#X coords 0 -1 1 1 80 160 2 60 60;
