#N canvas 146 126 1292 902 10;
#X obj 106 124 vsl 15 128 0 1 0 0 empty empty empty 0 -9 0 10 -228856
-1 -1 12700 1;
#X obj 76 325 s a1;
#X obj 126 125 vsl 15 128 0 1 0 0 empty empty empty 0 -9 0 10 -262144
-1 -1 0 1;
#X obj 146 125 vsl 15 128 0 1 0 0 empty empty empty 0 -9 0 10 -262144
-1 -1 0 1;
#X obj 165 124 vsl 15 128 0 1 0 0 empty empty empty 0 -9 0 10 -262144
-1 -1 0 1;
#X obj 185 124 vsl 15 128 0 1 0 0 empty empty empty 0 -9 0 10 -262144
-1 -1 0 1;
#X obj 205 124 vsl 15 128 0 1 0 0 empty empty empty 0 -9 0 10 -262144
-1 -1 0 1;
#X obj 224 124 vsl 15 128 0 1 0 0 empty empty empty 0 -9 0 10 -262144
-1 -1 0 1;
#X obj 244 124 vsl 15 128 0 1 0 0 empty empty empty 0 -9 0 10 -262144
-1 -1 0 1;
#X obj 110 325 s a2;
#X obj 147 325 s a3;
#X obj 182 325 s a4;
#X obj 223 325 s a5;
#X obj 256 325 s a6;
#X obj 291 325 s a7;
#X obj 325 325 s a8;
#X obj 156 13 loadbang;
#X obj 193 56 int 0;
#X obj 106 58 int 1;
#X text 155 103 harmonics;
#X obj 310 20 r harmonics;
#X obj 264 124 vsl 15 128 0 1 0 0 empty empty empty 0 -9 0 10 -262144
-1 -1 0 1;
#X obj 284 124 vsl 15 128 0 1 0 0 empty empty empty 0 -9 0 10 -262144
-1 -1 0 1;
#X obj 304 124 vsl 15 128 0 1 0 0 empty empty empty 0 -9 0 10 -262144
-1 -1 0 1;
#X obj 324 124 vsl 15 128 0 1 0 0 empty empty empty 0 -9 0 10 -262144
-1 -1 0 1;
#X obj 345 124 vsl 15 128 0 1 0 0 empty empty empty 0 -9 0 10 -262144
-1 -1 0 1;
#X obj 365 124 vsl 15 128 0 1 0 0 empty empty empty 0 -9 0 10 -262144
-1 -1 0 1;
#X obj 385 124 vsl 15 128 0 1 0 0 empty empty empty 0 -9 0 10 -262144
-1 -1 0 1;
#X obj 310 44 unpack 0 0 0 0 0 0 0 0 0 0 0 0 0 0;
#X obj 363 325 s a9;
#X obj 397 325 s a10;
#X obj 434 325 s a11;
#X obj 476 325 s a12;
#X obj 522 325 s a13;
#X obj 565 325 s a14;
#X obj 604 325 s a15;
#X connect 0 0 1 0;
#X connect 2 0 9 0;
#X connect 3 0 10 0;
#X connect 4 0 11 0;
#X connect 5 0 12 0;
#X connect 6 0 13 0;
#X connect 7 0 14 0;
#X connect 8 0 15 0;
#X connect 16 0 17 0;
#X connect 16 0 18 0;
#X connect 17 0 2 0;
#X connect 17 0 8 0;
#X connect 17 0 7 0;
#X connect 17 0 6 0;
#X connect 17 0 5 0;
#X connect 17 0 4 0;
#X connect 17 0 3 0;
#X connect 18 0 0 0;
#X connect 20 0 28 0;
#X connect 21 0 29 0;
#X connect 22 0 30 0;
#X connect 23 0 31 0;
#X connect 24 0 32 0;
#X connect 25 0 33 0;
#X connect 26 0 34 0;
#X connect 27 0 35 0;
#X connect 28 0 2 0;
#X connect 28 1 3 0;
#X connect 28 2 4 0;
#X connect 28 3 5 0;
#X connect 28 4 6 0;
#X connect 28 5 7 0;
#X connect 28 6 8 0;
#X connect 28 7 21 0;
#X connect 28 8 22 0;
#X connect 28 9 23 0;
#X connect 28 10 24 0;
#X connect 28 11 25 0;
#X connect 28 12 26 0;
#X connect 28 13 27 0;
#X coords 0 -1 1 1 310 160 2 100 100;
