#N canvas 224 180 824 687 12;
#X obj 28 51 catch~ synth;
#X obj 28 324 throw~ synth_l;
#X obj 153 324 throw~ synth_r;
#X obj 21 91 cnv 15 68 198 empty empty empty 20 12 0 14 -261234 -66577
0;
#X obj 39 100 upf.gain~;
#X obj 29 241 upf.pan~;
#X obj 128 206 r pan_midi_internal;
#X text 32 264 synth;
#X obj 238 29 loadbang;
#X msg 252 93 65;
#X connect 0 0 4 0;
#X connect 4 0 5 0;
#X connect 5 0 1 0;
#X connect 5 1 2 0;
#X connect 6 0 5 1;
#X connect 8 0 9 0;
#X connect 9 0 4 1;
#X coords 0 -1 1 1 70 200 2 20 90;
