#N canvas 163 23 1207 964 10;
#X obj 284 37 inlet;
#X obj 329 413 outlet~;
#X floatatom 284 62 5 0 0 0 - - -;
#X obj 283 92 mtof;
#X floatatom 281 149 5 0 0 0 - - -;
#X floatatom 370 150 5 0 0 0 - - -;
#X obj 283 176 phasor~;
#X obj 364 180 phasor~;
#X obj 350 257 *~ 0.7;
#X obj 381 105 + 1;
#N canvas 238 160 1030 585 dc_offset 0;
#X obj 174 53 inlet~;
#X obj 179 189 outlet~;
#X obj 174 89 -~ 0.5;
#X obj 176 141 *~ 2;
#X connect 0 0 2 0;
#X connect 2 0 3 0;
#X connect 3 0 1 0;
#X restore 271 225 pd dc_offset;
#N canvas 238 160 1030 585 dc_offset 0;
#X obj 174 53 inlet~;
#X obj 179 189 outlet~;
#X obj 174 89 -~ 0.5;
#X obj 176 141 *~ 2;
#X connect 0 0 2 0;
#X connect 2 0 3 0;
#X connect 3 0 1 0;
#X restore 386 218 pd dc_offset;
#X floatatom 113 156 0 0 0 0 - - -;
#X obj 326 357 vcf~ 1;
#X obj 110 228 sig~;
#X obj 203 246 *~ 100;
#X obj 193 332 +~;
#X obj 203 208 osc~ 2;
#X obj 113 193 * 2;
#X connect 0 0 2 0;
#X connect 2 0 3 0;
#X connect 3 0 4 0;
#X connect 3 0 9 0;
#X connect 3 0 12 0;
#X connect 4 0 6 0;
#X connect 5 0 7 0;
#X connect 6 0 10 0;
#X connect 7 0 11 0;
#X connect 8 0 13 0;
#X connect 9 0 5 0;
#X connect 10 0 13 0;
#X connect 11 0 8 0;
#X connect 12 0 18 0;
#X connect 13 0 1 0;
#X connect 14 0 16 0;
#X connect 15 0 16 1;
#X connect 16 0 13 1;
#X connect 17 0 15 0;
#X connect 18 0 14 0;
