#N canvas 669 23 464 457 10;
#X obj 107 51 inlet;
#X obj 109 402 outlet;
#X obj 145 51 inlet;
#X obj 62 51 inlet;
#X text 20 18 C * (1-((X-A)/(B-A))) + D * ((X-A)/(B-A)) \;;
#X obj 184 51 inlet;
#X obj 222 51 inlet;
#X obj 109 307 *;
#X obj 62 135 -;
#X obj 62 196 /;
#X obj 92 173 -;
#X obj 62 258 -;
#X obj 147 306 *;
#X obj 109 350 +;
#X obj 365 25 loadbang;
#X obj 260 50 t b b b b, f 14;
#X obj 260 77 \$1;
#X obj 287 77 \$2;
#X obj 315 77 \$3;
#X obj 342 77 \$4;
#X obj 218 177 t b b b b b b;
#X obj 61 236 1;
#X obj 61 215 t b f;
#X obj 109 372 clip \$3 \$4;
#X connect 0 0 8 1;
#X connect 0 0 10 1;
#X connect 2 0 10 0;
#X connect 3 0 8 0;
#X connect 3 0 20 0;
#X connect 5 0 7 1;
#X connect 6 0 12 1;
#X connect 7 0 13 0;
#X connect 8 0 9 0;
#X connect 9 0 12 0;
#X connect 9 0 22 0;
#X connect 10 0 9 1;
#X connect 11 0 7 0;
#X connect 12 0 13 1;
#X connect 13 0 23 0;
#X connect 14 0 15 0;
#X connect 14 0 19 0;
#X connect 14 0 18 0;
#X connect 14 0 17 0;
#X connect 14 0 16 0;
#X connect 15 0 16 0;
#X connect 15 1 17 0;
#X connect 15 2 18 0;
#X connect 15 3 19 0;
#X connect 16 0 8 1;
#X connect 16 0 10 1;
#X connect 17 0 10 0;
#X connect 18 0 7 1;
#X connect 19 0 12 1;
#X connect 21 0 11 0;
#X connect 22 0 21 0;
#X connect 22 1 11 1;
#X connect 23 0 1 0;
