#N canvas 287 248 400 389 10;
#X obj 35 32 inlet;
#X obj 35 55 route bang;
#X obj 221 331 text set \$0-queue;
#X obj 221 147 t a b;
#X obj 135 124 text define \$0-queue;
#X msg 135 101 clear;
#X obj 261 78 t b f;
#X obj 221 101 list;
#X obj 78 32 r \$0-out;
#X obj 288 308 s \$0-out;
#X obj 62 262 text get \$0-queue;
#X obj 35 239 t f f;
#X obj 62 331 outlet;
#X obj 35 308 text delete \$0-queue;
#X msg 35 216 0;
#X obj 254 170 text size \$0-queue;
#X obj 254 193 t f b f;
#X obj 273 239 sel;
#X obj 35 147 text size \$0-queue;
#X obj 288 262 >;
#X obj 288 285 sel;
#X obj 35 170 ==;
#X obj 35 193 sel 0 1;
#X obj 110 331 outlet;
#X obj 92 124 until;
#X obj 261 32 inlet;
#X obj 273 216 \$1;
#X obj 92 78 route flush clear size;
#X obj 158 331 outlet;
#X obj 110 285 text size \$0-queue;
#X obj 92 101 b;
#X obj 178 101 b;
#X obj 261 55 f;
#X connect 0 0 1 0;
#X connect 1 0 18 0;
#X connect 1 1 27 0;
#X connect 3 0 2 0;
#X connect 3 1 15 0;
#X connect 5 0 4 0;
#X connect 6 0 5 0;
#X connect 6 1 26 1;
#X connect 7 0 3 0;
#X connect 8 0 1 0;
#X connect 10 0 12 0;
#X connect 11 0 13 0;
#X connect 11 1 10 0;
#X connect 14 0 11 0;
#X connect 15 0 16 0;
#X connect 16 0 2 1;
#X connect 16 1 26 0;
#X connect 16 2 19 1;
#X connect 17 1 19 0;
#X connect 18 0 21 0;
#X connect 19 0 20 0;
#X connect 20 0 9 0;
#X connect 21 0 22 0;
#X connect 22 0 14 0;
#X connect 22 1 24 1;
#X connect 22 1 28 0;
#X connect 24 0 18 0;
#X connect 25 0 32 0;
#X connect 26 0 17 0;
#X connect 27 0 30 0;
#X connect 27 1 5 0;
#X connect 27 2 31 0;
#X connect 27 3 7 0;
#X connect 29 0 23 0;
#X connect 30 0 24 0;
#X connect 31 0 29 0;
#X connect 32 0 6 0;
