#N canvas 264 401 812 385 10;
#X obj 44 161 cos~;
#X obj 117 161 cos~;
#X obj 110 79 hsl 30 15 0 0.25 0 0 empty empty empty -2 -8 0 10 -162280
-1 -1 1450 1;
#X obj 117 130 + 0.75;
#X obj 29 198 *~;
#X obj 104 205 *~;
#X obj 117 19 loadbang;
#X obj 24 271 outlet~;
#X obj 104 270 outlet~;
#X obj 25 17 inlet~;
#X obj 228 14 inlet;
#N canvas 412 129 522 343 midismooth 0;
#X obj 140 47 inlet;
#X obj 138 182 outlet;
#X obj 139 82 / 127;
#X obj 139 103 / 4;
#X obj 138 143 line;
#X msg 138 124 \$1 200;
#X connect 0 0 2 0;
#X connect 2 0 3 0;
#X connect 3 0 5 0;
#X connect 4 0 1 0;
#X connect 5 0 4 0;
#X restore 229 37 pd midismooth;
#X msg 117 43 0.125;
#X connect 0 0 4 1;
#X connect 1 0 5 1;
#X connect 2 0 0 0;
#X connect 2 0 3 0;
#X connect 3 0 1 0;
#X connect 4 0 7 0;
#X connect 5 0 8 0;
#X connect 6 0 12 0;
#X connect 9 0 4 0;
#X connect 9 0 5 0;
#X connect 10 0 11 0;
#X connect 11 0 2 0;
#X connect 12 0 2 0;
#X coords 0 -1 1 1 50 20 2 100 76;
