#N canvas 450 308 863 484 12;
#X obj 17 16 vsl 15 128 0 100 0 0 \$0-gain \$0-gain-init empty 0 -9
0 10 -162280 -1 -1 11430 1;
#X obj 197 43 inlet~;
#X obj 258 67 r \$0-gain;
#X obj 258 98 dbtorms;
#X obj 258 154 line~;
#X msg 258 126 \$1 60;
#X obj 197 178 *~;
#X obj 197 220 outlet~;
#X obj 609 43 loadbang;
#X obj 607 102 s \$0-gain-init;
#X msg 609 74 90;
#X obj 389 18 inlet;
#X connect 1 0 6 0;
#X connect 2 0 3 0;
#X connect 3 0 5 0;
#X connect 4 0 6 1;
#X connect 5 0 4 0;
#X connect 6 0 7 0;
#X connect 8 0 10 0;
#X connect 10 0 9 0;
#X connect 11 0 0 0;
#X coords 0 -1 1 1 29 140 2 10 10;
