#N canvas 867 136 678 510 12;
#X obj 165 8 inlet;
#X obj 168 210 +~;
#X obj 275 153 osc~;
#X obj 275 182 *~;
#X floatatom 166 39 5 0 0 0 - - -;
#X obj 167 67 change;
#X obj 168 338 outlet~;
#X obj 427 13 r v_freq;
#X obj 292 12 r v_tones;
#X obj 292 43 int;
#X obj 427 80 vline~;
#X msg 427 50 \$1 200;
#X floatatom 292 80 5 0 0 0 - - -;
#X obj 168 300 mtof~;
#X obj 333 348 snapshot~;
#X obj 334 309 metro 10;
#X obj 334 282 tgl 15 0 empty empty empty 17 7 0 10 -262144 -1 -1 1
1;
#X floatatom 333 386 5 0 0 0 - - -;
#X obj 331 224 loadbang;
#X msg 332 253 1;
#X obj 168 155 vline~;
#X msg 167 119 \$1 400;
#X connect 0 0 4 0;
#X connect 1 0 13 0;
#X connect 1 0 14 0;
#X connect 2 0 3 0;
#X connect 3 0 1 1;
#X connect 4 0 5 0;
#X connect 5 0 21 0;
#X connect 7 0 11 0;
#X connect 8 0 9 0;
#X connect 9 0 12 0;
#X connect 10 0 2 0;
#X connect 11 0 10 0;
#X connect 12 0 3 1;
#X connect 13 0 6 0;
#X connect 14 0 17 0;
#X connect 15 0 14 0;
#X connect 16 0 15 0;
#X connect 18 0 19 0;
#X connect 19 0 16 0;
#X connect 20 0 1 0;
#X connect 21 0 20 0;
