#N canvas 423 163 548 423 10;
#X obj 398 41 loadbang;
#X obj 399 123 int \$1;
#X obj 98 231 i 0;
#X obj 155 230 + 1;
#X obj 98 379 outlet;
#X obj 97 39 inlet;
#X msg 166 172 0;
#X obj 166 144 bng 15 250 50 0 empty empty empty 17 7 0 10 -262144
-1 -1;
#X obj 97 84 t b a, f 12;
#X obj 166 114 route reset;
#X obj 208 300 sel 1;
#X obj 208 327 s reset-\$1;
#X obj 218 142 r reset-\$1;
#X obj 346 40 inlet;
#X obj 207 272 expr if ($i2<0 \, 0 \, $i1 >= $i2 -1);
#X connect 0 0 1 0;
#X connect 1 0 14 1;
#X connect 2 0 3 0;
#X connect 2 0 4 0;
#X connect 2 0 14 0;
#X connect 3 0 2 1;
#X connect 5 0 8 0;
#X connect 6 0 2 1;
#X connect 7 0 6 0;
#X connect 8 0 2 0;
#X connect 8 1 9 0;
#X connect 9 0 7 0;
#X connect 10 0 11 0;
#X connect 12 0 6 0;
#X connect 13 0 1 0;
#X connect 14 0 10 0;
