#N canvas 424 57 1193 706 12;
#X declare -path ./../externals;
#X declare -path ./../externals/zexy/reference;
#X declare -lib ./../externals/zexy;
#X declare -path ./../externals/zexy;
#N canvas 0 22 450 278 (subpatch) 0;
#X array scale 6 float 3;
#A 0 0 2 4 7 9.51429 12;
#X coords 0 12 6 0 200 140 1 0 0;
#X restore 519 111 graph;
#X obj 98 160 tabread scale;
#X obj 110 35 tgl 15 0 empty empty empty 17 7 0 10 -262144 -1 -1 0
1;
#X obj 109 57 metro 500;
#X obj 98 105 random 6;
#X floatatom 244 239 5 0 0 0 - - -;
#X msg 549 59 \; scale 0 0 2 4 7 9 12;
#X floatatom 295 477 5 0 0 0 - - -;
#X obj 346 74 vradio 20 1 0 10 empty empty empty 0 -8 0 10 -262144
-1 -1 4;
#X floatatom 346 299 5 0 0 0 - - -;
#X obj 345 333 * 12;
#X obj 307 434 +;
#X obj 513 443 hradio 32 1 0 6 empty val state 0 -8 1 10 -262144 -1
-1 5;
#X floatatom 513 387 5 0 0 0 - - val;
#X obj 513 317 metro 200;
#X obj 513 298 tgl 15 0 empty empty empty 17 7 0 10 -262144 -1 -1 1
1;
#X floatatom 657 372 5 0 0 0 - - -;
#X msg 788 312 25 50 25 50;
#X obj 513 343 list-abs/list-wrandom;
#N canvas 0 23 450 278 (subpatch) 0;
#X array markov 6 float 3;
#A 0 5.74281 6.51419 2.74281 7.97133 6.25706 11.0569;
#X coords 0 12 6 0 200 140 1 0 0;
#X restore 897 54 graph;
#X msg 657 394 \; markov1 resize \$1;
#X obj 848 373 list prepend 0;
#X obj 848 397 s markov1;
#X obj 529 369 bng 15 250 50 0 empty empty empty 17 7 0 10 -262144
-1 -1;
#X msg 788 265 10 20 70 22;
#X msg 788 336 10 20 40 100;
#X msg 787 288 80 10 10 23;
#X obj 64 474 declare -path ./../externals;
#X msg 800 110 bang;
#X obj 863 497 table markov;
#X obj 1007 403 tabread markov;
#X obj 72 553 declare -path ./../externals/zexy/reference;
#X obj 65 514 declare -lib ./../externals/zexy;
#X obj 81 577 declare -path ./../externals/zexy;
#X obj 786 139 tabdump markov;
#X obj 789 206 print;
#X connect 1 0 5 0;
#X connect 2 0 3 0;
#X connect 3 0 4 0;
#X connect 4 0 1 0;
#X connect 5 0 11 0;
#X connect 8 0 9 0;
#X connect 9 0 10 0;
#X connect 10 0 11 1;
#X connect 11 0 7 0;
#X connect 14 0 18 0;
#X connect 15 0 14 0;
#X connect 16 0 20 0;
#X connect 17 0 18 1;
#X connect 17 0 21 0;
#X connect 18 0 13 0;
#X connect 18 0 23 0;
#X connect 21 0 22 0;
#X connect 24 0 18 1;
#X connect 24 0 21 0;
#X connect 25 0 18 1;
#X connect 25 0 21 0;
#X connect 26 0 18 1;
#X connect 26 0 21 0;
#X connect 28 0 34 0;
#X connect 34 0 18 1;
#X connect 34 0 35 0;
