#N canvas 170 23 1263 850 10;
#X msg 690 180 0 2 4 5 7 9 11;
#X msg 724 207 0 2 3 5 7 8 10;
#X msg 776 261 0 2 4 6 7 9 11;
#X msg 751 234 0 1 3 5 7 8 10;
#X text 792 180 Major (Ionian);
#X text 824 204 Minor (Aeolian);
#X text 876 261 Lydian;
#X msg 816 290 0 2 4 6 8 10;
#X text 852 233 Phrygian;
#X text 903 289 Whole Tone;
#X obj 667 401 t l l;
#X obj 695 431 list length;
#X obj 671 603 s \$0-scale;
#X msg 696 503 resize \$1;
#X obj 708 470 s \$0-scale_length;
#X obj 221 254 r \$0-scale_length;
#X floatatom 133 202 5 0 0 0 - - -;
#X obj 135 285 mod 7;
#X obj 210 328 div 7;
#X obj 135 228 t f f;
#X floatatom 267 372 5 0 0 0 - - -;
#X obj 142 443 tabread \$0-scale;
#X floatatom 142 704 5 0 0 0 - - -;
#X obj 694 147 sel 0 1 2 3 4;
#N canvas 0 22 450 278 (subpatch) 0;
#X array \$0-scale 7 float 3;
#A 0 0 2 3 5 7 8 10;
#X coords 0 12 7 0 200 140 1 0 0;
#X restore 413 113 graph;
#X text 395 243 0;
#X text 391 105 12;
#X floatatom 98 346 5 0 0 0 - - -;
#X obj 210 381 * 12;
#X obj 142 517 +;
#X text 767 111 <-- this is just to avoid error messages \, because
[popup] bangs on load.;
#X text 186 557 <-- offset;
#X obj 670 546 list-abs/prepent 0;
#X obj 140 584 + 0;
#X obj 134 13 inlet;
#X obj 142 737 outlet;
#X obj 692 18 inlet;
#X floatatom 694 106 5 0 0 0 - - -;
#X floatatom 692 45 5 0 0 0 - - -;
#X obj 693 70 mod 5;
#X obj 133 83 t f f;
#X floatatom 134 43 5 0 0 0 - - -;
#X floatatom 198 175 5 0 0 0 - - -;
#X obj 198 154 int;
#X floatatom 197 222 5 0 0 0 - - -;
#X obj 133 134 mod 7;
#X obj 196 126 / 7;
#X floatatom 138 555 5 0 0 0 - - -;
#X obj 197 194 * 12;
#X obj 142 650 mod 127;
#X obj 141 609 - 30;
#X obj 801 17 loadbang;
#X msg 813 58 1;
#X connect 0 0 10 0;
#X connect 1 0 10 0;
#X connect 2 0 10 0;
#X connect 3 0 10 0;
#X connect 7 0 10 0;
#X connect 10 0 32 0;
#X connect 10 1 11 0;
#X connect 11 0 13 0;
#X connect 11 0 14 0;
#X connect 13 0 12 0;
#X connect 15 0 17 1;
#X connect 15 0 18 1;
#X connect 16 0 19 0;
#X connect 17 0 21 0;
#X connect 17 0 27 0;
#X connect 18 0 20 0;
#X connect 18 0 28 0;
#X connect 19 0 17 0;
#X connect 19 1 18 0;
#X connect 21 0 29 0;
#X connect 22 0 35 0;
#X connect 23 0 0 0;
#X connect 23 1 1 0;
#X connect 23 2 3 0;
#X connect 23 3 2 0;
#X connect 23 4 7 0;
#X connect 28 0 29 1;
#X connect 29 0 47 0;
#X connect 32 0 12 0;
#X connect 33 0 50 0;
#X connect 34 0 41 0;
#X connect 36 0 38 0;
#X connect 37 0 23 0;
#X connect 38 0 39 0;
#X connect 39 0 37 0;
#X connect 40 0 45 0;
#X connect 40 1 46 0;
#X connect 41 0 40 0;
#X connect 42 0 48 0;
#X connect 43 0 42 0;
#X connect 44 0 33 1;
#X connect 45 0 16 0;
#X connect 46 0 43 0;
#X connect 47 0 33 0;
#X connect 48 0 44 0;
#X connect 49 0 22 0;
#X connect 50 0 49 0;
#X connect 51 0 52 0;
#X connect 52 0 23 0;
