#N canvas 415 66 676 357 10;
#X obj 84 190 cyclone/sprintf %i%i;
#X text 227 32 we want to keep the 3 last values and store -2-1 as
the key and 0 as the value;
#X obj 77 69 inlet;
#X obj 86 245 outlet;
#X obj 79 95 list-abs/last-x 2;
#X obj 84 155 unpack 0 0;
#X msg 82 125 \$2 \$1;
#X connect 0 0 3 0;
#X connect 2 0 4 0;
#X connect 4 0 6 0;
#X connect 5 0 0 0;
#X connect 5 1 0 1;
#X connect 6 0 5 0;
