#N canvas 273 172 577 391 12;
#X obj 48 69 vradio 20 1 0 7 empty empty empty 0 -8 0 10 -162280 -1
-1 1;
#X text 71 70 1;
#X text 71 90 1/2;
#X text 72 111 1/4;
#X text 72 131 1/8;
#X text 70 150 1/16;
#X text 70 172 1/32;
#X text 70 191 1/64;
#X obj 48 227 select 0 1 2 3 4 5 6, f 39;
#X msg 48 264 1;
#X msg 85 264 2;
#X msg 122 264 4;
#X msg 161 266 8;
#X msg 201 266 16;
#X msg 240 266 32;
#X msg 277 265 64;
#X obj 46 5 loadbang;
#X msg 48 28 1;
#X obj 140 360 s measure_markov;
#X connect 0 0 8 0;
#X connect 8 0 9 0;
#X connect 8 1 10 0;
#X connect 8 2 11 0;
#X connect 8 3 12 0;
#X connect 8 4 13 0;
#X connect 8 5 14 0;
#X connect 8 6 15 0;
#X connect 9 0 18 0;
#X connect 10 0 18 0;
#X connect 11 0 18 0;
#X connect 12 0 18 0;
#X connect 13 0 18 0;
#X connect 14 0 18 0;
#X connect 15 0 18 0;
#X connect 16 0 17 0;
#X connect 17 0 0 0;
#X coords 0 -1 1 1 80 160 2 40 60;
