#N canvas 423 478 450 300 10;
#X obj 155 17 inlet~ L;
#X obj 223 17 inlet~ R;
#X obj 155 43 *~ 5;
#X obj 223 43 *~ 5;
#X obj 155 69 outlet~;
#X obj 212 72 outlet~;
#X connect 0 0 2 0;
#X connect 1 0 3 0;
#X connect 2 0 4 0;
#X connect 3 0 5 0;
