#N canvas 250 23 1278 1004 10;
#X obj 129 383 mtof;
#X obj 129 359 nbx 5 14 -1e+37 1e+37 0 1 empty empty empty 0 -8 0 10
-262144 -1 -1 52 256;
#X obj 1118 383 mtof;
#X obj 1118 359 nbx 5 14 -1e+37 1e+37 0 1 empty empty empty 0 -8 0
10 -262144 -1 -1 50 256;
#X obj 239 383 mtof;
#X obj 239 359 nbx 5 14 -1e+37 1e+37 0 1 empty empty empty 0 -8 0 10
-262144 -1 -1 64 256;
#X obj 349 383 mtof;
#X obj 349 359 nbx 5 14 -1e+37 1e+37 0 1 empty empty empty 0 -8 0 10
-262144 -1 -1 63 256;
#X obj 459 383 mtof;
#X obj 459 359 nbx 5 14 -1e+37 1e+37 0 1 empty empty empty 0 -8 0 10
-262144 -1 -1 50 256;
#X obj 568 383 mtof;
#X obj 568 359 nbx 5 14 -1e+37 1e+37 0 1 empty empty empty 0 -8 0 10
-262144 -1 -1 40 256;
#X obj 679 383 mtof;
#X obj 679 359 nbx 5 14 -1e+37 1e+37 0 1 empty empty empty 0 -8 0 10
-262144 -1 -1 67 256;
#X obj 788 383 mtof;
#X obj 788 359 nbx 5 14 -1e+37 1e+37 0 1 empty empty empty 0 -8 0 10
-262144 -1 -1 52 256;
#X obj 899 383 mtof;
#X obj 899 359 nbx 5 14 -1e+37 1e+37 0 1 empty empty empty 0 -8 0 10
-262144 -1 -1 39 256;
#X obj 1009 383 mtof;
#X obj 1009 359 nbx 5 14 -1e+37 1e+37 0 1 empty empty empty 0 -8 0
10 -262144 -1 -1 41 256;
#X obj 436 277 snapshot~;
#X obj 364 147 +~ 1;
#X obj 302 121 loadbang;
#X obj 302 147 metro 50;
#X obj 326 333 stream~ 18000 50;
#X obj 364 121 osc~ 0.05;
#X obj 523 147 until;
#X msg 523 95 10;
#X obj 523 225 i;
#X obj 555 225 + 1;
#X obj 523 121 t f b;
#X obj 523 251 pack f f;
#X obj 523 277 route 1 2 3 4 5 6 7 8 9 10;
#X msg 538 199 1;
#N canvas 0 0 450 300 (subpatch) 0;
#X array scale 7 float 1;
#A 0 1 2 3 4 5 6 7;
#X coords 0 12 6 0 200 140 1;
#X restore 679 95 graph;
#X obj 587 121 tabread scale;
#X obj 523 173 t b b b;
#X obj 587 225 +;
#X obj 587 95 random 7;
#X obj 523 69 metro 5000;
#X obj 392 700 hsl 128 15 0 1 0 1 empty empty empty -2 -8 0 10 -262144
-1 -1 6350 1;
#X obj 546 436 autopan;
#X obj 602 199 + 36;
#X obj 602 173 * 12;
#X obj 602 147 random 3;
#X obj 145 618 random 2;
#X obj 107 618 lop~;
#X obj 107 644 lop~;
#X obj 107 670 hip~;
#X obj 107 696 hip~;
#X obj 308 696 hip~;
#X obj 308 670 hip~;
#X obj 308 644 lop~;
#X obj 308 618 lop~;
#X obj 145 644 sel 0 1;
#X obj 164 722 line;
#X obj 217 618 random 2;
#X obj 217 644 sel 0 1;
#X obj 236 722 line;
#X obj 106 333 stream~ 19500 44;
#X obj 876 333 stream~ 15500 60;
#X obj 766 333 stream~ 16000 58;
#X obj 656 333 stream~ 16500 56;
#X obj 546 333 stream~ 17000 54;
#X obj 436 333 stream~ 17500 52;
#X obj 216 333 stream~ 18500 48;
#X obj 1096 333 stream~ 19000 46;
#X obj 986 333 stream~ 20000 42;
#X obj 107 436 autopan;
#X obj 217 436 autopan;
#X obj 327 436 autopan;
#X obj 437 436 autopan;
#X obj 657 436 autopan;
#X obj 766 436 autopan;
#X obj 877 436 autopan;
#X obj 987 436 autopan;
#X obj 1096 436 autopan;
#X obj 364 173 *~ 500;
#X obj 432 121 random 2;
#X obj 432 147 sel 0 1;
#X obj 451 225 line;
#X obj 436 251 +~;
#X msg 432 199 3000 5000;
#X msg 451 173 50 5000;
#X obj 107 540 catch~ \$0-l_fx;
#X obj 308 540 catch~ \$0-r_fx;
#X obj 107 462 throw~ \$0-l_fx;
#X obj 217 462 throw~ \$0-l_fx;
#X obj 327 462 throw~ \$0-l_fx;
#X obj 437 462 throw~ \$0-l_fx;
#X obj 546 462 throw~ \$0-l_fx;
#X obj 657 462 throw~ \$0-l_fx;
#X obj 766 462 throw~ \$0-l_fx;
#X obj 877 462 throw~ \$0-l_fx;
#X obj 987 462 throw~ \$0-l_fx;
#X obj 1096 462 throw~ \$0-l_fx;
#X obj 146 488 throw~ \$0-r_fx;
#X obj 256 488 throw~ \$0-r_fx;
#X obj 366 488 throw~ \$0-r_fx;
#X obj 476 488 throw~ \$0-r_fx;
#X obj 585 488 throw~ \$0-r_fx;
#X obj 696 488 throw~ \$0-r_fx;
#X obj 805 488 throw~ \$0-r_fx;
#X obj 916 488 throw~ \$0-r_fx;
#X obj 1026 488 throw~ \$0-r_fx;
#X obj 1135 488 throw~ \$0-r_fx;
#X obj 308 778 freezeverb 300;
#X obj 107 778 freezeverb 299;
#X obj 532 674 osc~;
#X obj 532 596 vline~;
#X obj 532 544 * 4;
#X obj 532 622 +~;
#X obj 592 596 *~;
#X msg 532 570 \$1 2500;
#X obj 592 544 osc~ 1864;
#X obj 663 674 osc~;
#X obj 663 596 vline~;
#X obj 663 544 * 4;
#X obj 663 622 +~;
#X obj 607 570 *~ 2000;
#X obj 308 592 *~;
#X obj 107 592 *~;
#X obj 657 409 vcf~ 800;
#X msg 217 696 300 2500;
#X msg 236 670 1500 2500;
#X msg 164 670 1500 2500;
#X msg 145 696 300 2500;
#X obj 107 409 vcf~ 300;
#X obj 217 409 vcf~ 400;
#X obj 327 409 vcf~ 500;
#X obj 437 409 vcf~ 600;
#X obj 546 409 vcf~ 700;
#X obj 766 409 vcf~ 300;
#X obj 877 409 vcf~ 400;
#X obj 987 409 vcf~ 500;
#X obj 1096 409 vcf~ 600;
#X obj 323 514 min 500;
#X obj 323 566 / 500;
#X obj 264 778 *~ 24;
#X obj 220 778 *~ 24;
#X obj 308 722 *~ 3;
#X obj 107 722 *~ 3;
#X obj 532 648 +~;
#X obj 663 648 +~;
#X obj 592 622 osc~ 4;
#X obj 592 648 *~ 30;
#X msg 663 570 \$1 2000;
#X obj 532 700 *~ 8e-06;
#X obj 663 700 *~ 8e-06;
#X obj 107 833 master;
#X obj 81 943 outlet~;
#X obj 142 943 outlet~;
#X obj 96 895 *~;
#X obj 181 906 *~;
#X obj 291 840 r mediation_velocity;
#X obj 290 871 upf.envelope_meditation~;
#X obj 143 25 inlet;
#X obj 201 25 inlet;
#X obj 1053 219 tabwrite scale;
#X obj 931 84 unpack 0 0 0 0 0 0 0, f 40;
#X msg 930 133 \$1 0;
#X msg 970 133 \$1 1;
#X msg 1008 133 \$1 2;
#X msg 1042 133 \$1 3;
#X msg 1082 133 \$1 4;
#X msg 1124 133 \$1 5;
#X msg 1166 133 \$1 6;
#X obj 931 36 inlet;
#X connect 0 0 110 0;
#X connect 0 0 127 1;
#X connect 1 0 0 0;
#X connect 2 0 135 1;
#X connect 3 0 2 0;
#X connect 4 0 117 0;
#X connect 4 0 128 1;
#X connect 5 0 4 0;
#X connect 6 0 129 1;
#X connect 7 0 6 0;
#X connect 8 0 130 1;
#X connect 9 0 8 0;
#X connect 10 0 131 1;
#X connect 11 0 10 0;
#X connect 12 0 122 1;
#X connect 13 0 12 0;
#X connect 14 0 132 1;
#X connect 15 0 14 0;
#X connect 16 0 133 1;
#X connect 17 0 16 0;
#X connect 18 0 134 1;
#X connect 19 0 18 0;
#X connect 20 0 24 0;
#X connect 20 0 59 0;
#X connect 20 0 60 0;
#X connect 20 0 61 0;
#X connect 20 0 62 0;
#X connect 20 0 63 0;
#X connect 20 0 64 0;
#X connect 20 0 65 0;
#X connect 20 0 66 0;
#X connect 20 0 67 0;
#X connect 21 0 77 0;
#X connect 21 0 119 0;
#X connect 22 0 23 0;
#X connect 22 0 39 0;
#X connect 23 0 20 0;
#X connect 24 0 129 0;
#X connect 25 0 21 0;
#X connect 26 0 36 0;
#X connect 27 0 30 0;
#X connect 28 0 29 0;
#X connect 28 0 31 0;
#X connect 29 0 28 1;
#X connect 30 0 26 0;
#X connect 30 1 33 0;
#X connect 31 0 32 0;
#X connect 32 0 1 0;
#X connect 32 1 5 0;
#X connect 32 2 7 0;
#X connect 32 3 9 0;
#X connect 32 4 11 0;
#X connect 32 5 13 0;
#X connect 32 6 15 0;
#X connect 32 7 17 0;
#X connect 32 8 19 0;
#X connect 32 9 3 0;
#X connect 33 0 28 1;
#X connect 35 0 37 0;
#X connect 36 0 28 0;
#X connect 36 1 38 0;
#X connect 36 2 44 0;
#X connect 37 0 31 1;
#X connect 38 0 35 0;
#X connect 39 0 27 0;
#X connect 39 0 45 0;
#X connect 39 0 56 0;
#X connect 39 0 78 0;
#X connect 40 0 106 1;
#X connect 40 0 107 1;
#X connect 41 0 90 0;
#X connect 41 1 100 0;
#X connect 42 0 37 1;
#X connect 43 0 42 0;
#X connect 44 0 43 0;
#X connect 45 0 54 0;
#X connect 46 0 47 0;
#X connect 47 0 48 0;
#X connect 48 0 49 0;
#X connect 49 0 141 0;
#X connect 50 0 140 0;
#X connect 51 0 50 0;
#X connect 52 0 51 0;
#X connect 53 0 52 0;
#X connect 54 0 126 0;
#X connect 54 1 125 0;
#X connect 55 0 46 1;
#X connect 55 0 47 1;
#X connect 55 0 48 1;
#X connect 55 0 49 1;
#X connect 56 0 57 0;
#X connect 57 0 123 0;
#X connect 57 1 124 0;
#X connect 58 0 53 1;
#X connect 58 0 52 1;
#X connect 58 0 51 1;
#X connect 58 0 50 1;
#X connect 59 0 127 0;
#X connect 60 0 133 0;
#X connect 61 0 132 0;
#X connect 62 0 122 0;
#X connect 63 0 131 0;
#X connect 64 0 130 0;
#X connect 65 0 128 0;
#X connect 66 0 135 0;
#X connect 67 0 134 0;
#X connect 68 0 86 0;
#X connect 68 1 96 0;
#X connect 69 0 87 0;
#X connect 69 1 97 0;
#X connect 70 0 88 0;
#X connect 70 1 98 0;
#X connect 71 0 89 0;
#X connect 71 1 99 0;
#X connect 72 0 91 0;
#X connect 72 1 101 0;
#X connect 73 0 92 0;
#X connect 73 1 102 0;
#X connect 74 0 93 0;
#X connect 74 1 103 0;
#X connect 75 0 94 0;
#X connect 75 1 104 0;
#X connect 76 0 95 0;
#X connect 76 1 105 0;
#X connect 77 0 81 0;
#X connect 78 0 79 0;
#X connect 79 0 82 0;
#X connect 79 1 83 0;
#X connect 80 0 81 1;
#X connect 80 0 136 0;
#X connect 81 0 20 0;
#X connect 82 0 80 0;
#X connect 83 0 80 0;
#X connect 84 0 121 0;
#X connect 85 0 120 0;
#X connect 106 0 149 1;
#X connect 106 1 149 0;
#X connect 107 0 149 0;
#X connect 107 1 149 1;
#X connect 108 0 147 0;
#X connect 109 0 111 0;
#X connect 110 0 113 0;
#X connect 111 0 142 0;
#X connect 112 0 111 1;
#X connect 112 0 118 1;
#X connect 113 0 109 0;
#X connect 114 0 112 0;
#X connect 115 0 148 0;
#X connect 116 0 118 0;
#X connect 117 0 146 0;
#X connect 118 0 143 0;
#X connect 119 0 112 1;
#X connect 120 0 53 0;
#X connect 120 0 138 0;
#X connect 121 0 46 0;
#X connect 121 0 139 0;
#X connect 122 0 72 0;
#X connect 123 0 58 0;
#X connect 124 0 58 0;
#X connect 125 0 55 0;
#X connect 126 0 55 0;
#X connect 127 0 68 0;
#X connect 128 0 69 0;
#X connect 129 0 70 0;
#X connect 130 0 71 0;
#X connect 131 0 41 0;
#X connect 132 0 73 0;
#X connect 133 0 74 0;
#X connect 134 0 75 0;
#X connect 135 0 76 0;
#X connect 136 0 137 0;
#X connect 137 0 120 1;
#X connect 137 0 121 1;
#X connect 138 0 149 1;
#X connect 139 0 149 0;
#X connect 140 0 106 0;
#X connect 141 0 107 0;
#X connect 142 0 108 0;
#X connect 143 0 115 0;
#X connect 144 0 145 0;
#X connect 145 0 142 1;
#X connect 145 0 143 1;
#X connect 146 0 116 0;
#X connect 147 0 107 0;
#X connect 148 0 106 0;
#X connect 149 0 152 0;
#X connect 149 1 153 0;
#X connect 152 0 150 0;
#X connect 153 0 151 0;
#X connect 154 0 155 0;
#X connect 155 0 152 1;
#X connect 155 0 153 1;
#X connect 156 0 40 0;
#X connect 157 0 39 1;
#X connect 159 0 160 0;
#X connect 159 1 161 0;
#X connect 159 2 162 0;
#X connect 159 3 163 0;
#X connect 159 4 164 0;
#X connect 159 5 165 0;
#X connect 159 6 166 0;
#X connect 160 0 158 0;
#X connect 161 0 158 0;
#X connect 162 0 158 0;
#X connect 163 0 158 0;
#X connect 164 0 158 0;
#X connect 165 0 158 0;
#X connect 166 0 158 0;
#X connect 167 0 159 0;
