#N canvas 0 23 1107 677 12;
#X obj 121 105 upf.additive~;
#X obj 233 104 upf.fm~;
#X obj 119 28 inlet;
#X obj 813 331 vline~;
#X obj 910 333 vline~;
#X obj 973 332 vline~;
#X obj 343 107 upf.sottrattiva~;
#X obj 861 101 r modes;
#X obj 861 136 unpack 0 0 0;
#X msg 813 295 \$1 20;
#X msg 910 297 \$1 20;
#X msg 974 296 \$1 20;
#X obj 172 467 outlet~;
#X obj 231 347 *~ 1;
#X obj 170 434 *~ 0.5;
#X obj 125 348 *~ 0.8;
#X connect 0 0 15 0;
#X connect 1 0 13 0;
#X connect 2 0 0 0;
#X connect 2 0 1 0;
#X connect 2 0 6 0;
#X connect 7 0 8 0;
#X connect 8 0 9 0;
#X connect 8 1 10 0;
#X connect 8 2 11 0;
#X connect 9 0 3 0;
#X connect 10 0 4 0;
#X connect 11 0 5 0;
#X connect 13 0 14 0;
#X connect 14 0 12 0;
#X connect 15 0 14 0;
