#N canvas 321 60 771 626 12;
#X obj 107 29 inlet;
#X text 102 5 velocity;
#X obj 108 70 sel 0;
#X obj 155 355 vline~;
#X obj 170 82 t b f;
#X obj 155 485 outlet~;
#X text 154 507 signal envelope;
#X msg 171 267 1 \$1;
#X msg 106 267 0 \$1;
#X obj 172 233 int 500;
#X obj 106 233 3000;
#X connect 0 0 2 0;
#X connect 2 0 10 0;
#X connect 2 1 4 0;
#X connect 3 0 5 0;
#X connect 4 0 9 0;
#X connect 7 0 3 0;
#X connect 8 0 3 0;
#X connect 9 0 7 0;
#X connect 10 0 8 0;
