#N canvas 0 23 632 387 12;
#X obj 114 116 unpack 0 0;
#X obj 156 275 *~;
#X obj 115 57 inlet;
#X obj 156 329 outlet~;
#X obj 231 183 upf.envelope~;
#X obj 102 184 upf.voice_all~;
#X connect 0 0 5 0;
#X connect 0 1 4 0;
#X connect 1 0 3 0;
#X connect 2 0 0 0;
#X connect 4 0 1 1;
#X connect 5 0 1 0;
