#N canvas 758 148 625 372 12;
#X obj 105 116 tgl 20 0 s_start empty empty -40 -10 0 12 -262144 -1
-1 0 1;
#X msg 340 113 reset;
#N canvas 878 310 549 463 sequencer 0;
#X obj 119 37 inlet;
#X obj 170 36 inlet;
#X obj 308 28 inlet;
#X obj 123 403 outlet;
#X obj 123 340 metro;
#X obj 195 102 loadbang;
#X obj 291 166 s bpm;
#X obj 173 166 upf.bpm_to_ms;
#X obj 123 365 upf.counter 8;
#X obj 154 289 /;
#X obj 226 212 r measure;
#X obj 226 242 t b f;
#X msg 195 126 40;
#X connect 0 0 4 0;
#X connect 1 0 7 0;
#X connect 2 0 8 0;
#X connect 4 0 8 0;
#X connect 5 0 12 0;
#X connect 7 0 9 0;
#X connect 8 0 3 0;
#X connect 9 0 4 1;
#X connect 10 0 11 0;
#X connect 11 0 9 0;
#X connect 11 1 9 1;
#X connect 12 0 6 0;
#X connect 12 0 7 0;
#X restore 105 147 pd sequencer;
#X f 34;
#X floatatom 222 118 5 0 0 2 - bpm -;
#X obj 105 9 loadbang;
#X msg 105 46 1;
#X text 128 116 on/off;
#X text 261 116 bpm;
#X obj 105 194 s seq_steps;
#X obj 224 9 r bpm_from_midi_file;
#X obj 224 45 s bpm;
#X obj 449 275 s bpm_in_ms;
#X obj 318 181 upf.bpm_to_ms;
#X obj 449 243 /;
#X obj 449 215 t b f;
#X obj 449 185 r measure_markov;
#X connect 0 0 2 0;
#X connect 1 0 2 2;
#X connect 2 0 8 0;
#X connect 3 0 2 1;
#X connect 3 0 12 0;
#X connect 4 0 5 0;
#X connect 5 0 0 0;
#X connect 9 0 10 0;
#X connect 12 0 13 0;
#X connect 13 0 11 0;
#X connect 14 0 13 0;
#X connect 14 1 13 1;
#X connect 15 0 14 0;
#X coords 0 -1 1 1 210 40 2 100 100;
