#N canvas 416 304 1264 626 12;
#X obj 181 244 r sample_00;
#X obj 181 437 throw~ sign_00;
#N canvas 534 261 682 490 read_wave 0;
#X obj 70 26 inlet;
#X obj 207 182 random 4;
#X obj 207 213 + 1;
#X obj 70 362 soundfiler;
#X floatatom 70 396 0 0 0 0 - - -;
#X obj 70 246 pack s s 0, f 20;
#X obj 70 190 unpack s s;
#X msg 70 328 read -resize ../sounds/909-samples/\$1\$3.wav \$2 \;
;
#X msg 310 216 1;
#X obj 207 124 int;
#X obj 207 157 sel 1, f 15;
#X obj 225 26 r humanize;
#X obj 263 96 list;
#X msg 263 133 \$3;
#X obj 70 67 t a b a, f 28;
#X connect 0 0 14 0;
#X connect 1 0 2 0;
#X connect 2 0 5 2;
#X connect 3 0 4 0;
#X connect 5 0 7 0;
#X connect 6 0 5 0;
#X connect 6 1 5 1;
#X connect 7 0 3 0;
#X connect 8 0 5 2;
#X connect 9 0 10 0;
#X connect 10 0 1 0;
#X connect 10 1 8 0;
#X connect 11 0 9 1;
#X connect 12 0 13 0;
#X connect 13 0 1 1;
#X connect 14 0 6 0;
#X connect 14 1 9 0;
#X connect 14 2 12 0;
#X restore 213 357 pd read_wave;
#X obj 181 275 t b b;
#X obj 247 275 loadbang;
#X obj 181 404 tabplay~ kick;
#N canvas 534 261 682 490 read_wave 0;
#X obj 70 26 inlet;
#X obj 207 182 random 4;
#X obj 207 213 + 1;
#X obj 70 362 soundfiler;
#X floatatom 70 396 0 0 0 0 - - -;
#X obj 70 246 pack s s 0, f 20;
#X obj 70 190 unpack s s;
#X msg 70 328 read -resize ../sounds/909-samples/\$1\$3.wav \$2 \;
;
#X msg 310 216 1;
#X obj 207 124 int;
#X obj 207 157 sel 1, f 15;
#X obj 225 26 r humanize;
#X obj 263 96 list;
#X msg 263 133 \$3;
#X obj 70 67 t a b a, f 28;
#X connect 0 0 14 0;
#X connect 1 0 2 0;
#X connect 2 0 5 2;
#X connect 3 0 4 0;
#X connect 5 0 7 0;
#X connect 6 0 5 0;
#X connect 6 1 5 1;
#X connect 7 0 3 0;
#X connect 8 0 5 2;
#X connect 9 0 10 0;
#X connect 10 0 1 0;
#X connect 10 1 8 0;
#X connect 11 0 9 1;
#X connect 12 0 13 0;
#X connect 13 0 1 1;
#X connect 14 0 6 0;
#X connect 14 1 9 0;
#X connect 14 2 12 0;
#X restore 381 360 pd read_wave;
#X obj 349 278 t b b;
#X obj 415 278 loadbang;
#X obj 349 247 r sample_01;
#X obj 349 408 tabplay~ snare;
#N canvas 534 261 682 490 read_wave 0;
#X obj 70 26 inlet;
#X obj 207 182 random 4;
#X obj 207 213 + 1;
#X obj 70 362 soundfiler;
#X floatatom 70 396 0 0 0 0 - - -;
#X obj 70 246 pack s s 0, f 20;
#X obj 70 190 unpack s s;
#X msg 70 328 read -resize ../sounds/909-samples/\$1\$3.wav \$2 \;
;
#X msg 310 216 1;
#X obj 207 124 int;
#X obj 207 157 sel 1, f 15;
#X obj 225 26 r humanize;
#X obj 263 96 list;
#X msg 263 133 \$3;
#X obj 70 67 t a b a, f 28;
#X connect 0 0 14 0;
#X connect 1 0 2 0;
#X connect 2 0 5 2;
#X connect 3 0 4 0;
#X connect 5 0 7 0;
#X connect 6 0 5 0;
#X connect 6 1 5 1;
#X connect 7 0 3 0;
#X connect 8 0 5 2;
#X connect 9 0 10 0;
#X connect 10 0 1 0;
#X connect 10 1 8 0;
#X connect 11 0 9 1;
#X connect 12 0 13 0;
#X connect 13 0 1 1;
#X connect 14 0 6 0;
#X connect 14 1 9 0;
#X connect 14 2 12 0;
#X restore 532 360 pd read_wave;
#X obj 500 278 t b b;
#X obj 566 278 loadbang;
#X obj 500 247 r sample_02;
#X obj 501 408 tabplay~ high_hat;
#X obj 349 440 throw~ sign_01;
#X obj 501 440 throw~ sign_02;
#N canvas 534 261 682 490 read_wave 0;
#X obj 70 26 inlet;
#X obj 207 182 random 4;
#X obj 207 213 + 1;
#X obj 70 362 soundfiler;
#X floatatom 70 396 0 0 0 0 - - -;
#X obj 70 246 pack s s 0, f 20;
#X obj 70 190 unpack s s;
#X msg 70 328 read -resize ../sounds/909-samples/\$1\$3.wav \$2 \;
;
#X msg 310 216 1;
#X obj 207 124 int;
#X obj 207 157 sel 1, f 15;
#X obj 225 26 r humanize;
#X obj 263 96 list;
#X msg 263 133 \$3;
#X obj 70 67 t a b a, f 28;
#X connect 0 0 14 0;
#X connect 1 0 2 0;
#X connect 2 0 5 2;
#X connect 3 0 4 0;
#X connect 5 0 7 0;
#X connect 6 0 5 0;
#X connect 6 1 5 1;
#X connect 7 0 3 0;
#X connect 8 0 5 2;
#X connect 9 0 10 0;
#X connect 10 0 1 0;
#X connect 10 1 8 0;
#X connect 11 0 9 1;
#X connect 12 0 13 0;
#X connect 13 0 1 1;
#X connect 14 0 6 0;
#X connect 14 1 9 0;
#X connect 14 2 12 0;
#X restore 696 359 pd read_wave;
#X obj 664 277 t b b;
#X obj 730 277 loadbang;
#X obj 664 246 r sample_03;
#X obj 665 407 tabplay~ clap;
#X obj 665 439 throw~ sign_03;
#X msg 532 327 hh0 high_hat 4;
#X msg 696 326 cp0 clap 4;
#X msg 213 324 bd0 kick 8;
#X msg 381 327 sd0 snare 8;
#X obj 21 21 cnv 15 330 98 empty empty empty 20 12 0 14 -261682 -66577
0;
#N canvas 0 23 450 300 (subpatch) 0;
#X array kick 8256 float 0;
#X coords 0 1 8255 -1 60 50 1 0 0;
#X restore 87 46 graph;
#N canvas 0 23 450 300 (subpatch) 0;
#X array snare 14038 float 0;
#X coords 0 1 14037 -1 60 50 1 0 0;
#X restore 152 46 graph;
#N canvas 0 23 450 300 (subpatch) 0;
#X array high_hat 6888 float 0;
#X coords 0 1 6887 -1 60 50 1 0 0;
#X restore 216 46 graph;
#N canvas 0 23 450 300 (subpatch) 0;
#X array clap 33068 float 0;
#X coords 0 1 33067 -1 60 50 1 0 0;
#X restore 280 46 graph;
#X obj 43 57 tgl 25 0 humanize empty empty 17 7 0 10 -162280 -1 -1
0 1;
#X text 32 37 random;
#X connect 0 0 3 0;
#X connect 3 0 5 0;
#X connect 3 1 26 0;
#X connect 4 0 26 0;
#X connect 5 0 1 0;
#X connect 7 0 10 0;
#X connect 7 1 27 0;
#X connect 8 0 27 0;
#X connect 9 0 7 0;
#X connect 10 0 16 0;
#X connect 12 0 15 0;
#X connect 12 1 24 0;
#X connect 13 0 24 0;
#X connect 14 0 12 0;
#X connect 15 0 17 0;
#X connect 19 0 22 0;
#X connect 19 1 25 0;
#X connect 20 0 25 0;
#X connect 21 0 19 0;
#X connect 22 0 23 0;
#X connect 24 0 11 0;
#X connect 25 0 18 0;
#X connect 26 0 2 0;
#X connect 27 0 6 0;
#X coords 0 -1 1 1 332 100 2 20 20;
