#N canvas 360 174 1180 720 12;
#X obj 23 26 tgl 15 0 \$0-s0 empty empty 17 7 0 10 -262144 -1 -1 0
1;
#X obj 38 26 tgl 15 0 \$0-s1 empty empty 17 7 0 10 -262144 -1 -1 0
1;
#X obj 53 26 tgl 15 0 \$0-s2 empty empty 17 7 0 10 -262144 -1 -1 1
1;
#X obj 67 26 tgl 15 0 \$0-s3 empty empty 17 7 0 10 -262144 -1 -1 1
1;
#X obj 82 26 tgl 15 0 \$0-s4 empty empty 17 7 0 10 -262144 -1 -1 0
1;
#X obj 97 26 tgl 15 0 \$0-s5 empty empty 17 7 0 10 -262144 -1 -1 0
1;
#X obj 112 26 tgl 15 0 \$0-s6 empty empty 17 7 0 10 -262144 -1 -1 0
1;
#X obj 127 26 tgl 15 0 \$0-s7 empty empty 17 7 0 10 -262144 -1 -1 0
1;
#N canvas 122 231 1005 503 step_selector 0;
#X obj 59 143 sel 0 1 2 3 4 5 6 7, f 96;
#X obj 59 207 int;
#X obj 143 206 int;
#X obj 227 207 int;
#X obj 310 207 int;
#X obj 393 206 int;
#X obj 477 205 int;
#X obj 560 206 int;
#X obj 644 205 int;
#X obj 59 110 inlet;
#X obj 358 288 outlet;
#X obj 77 170 inlet;
#X obj 161 170 inlet;
#X obj 245 170 inlet;
#X obj 328 172 inlet;
#X obj 411 169 inlet;
#X obj 494 172 inlet;
#X obj 578 171 inlet;
#X obj 662 172 inlet;
#X connect 0 0 1 0;
#X connect 0 1 2 0;
#X connect 0 2 3 0;
#X connect 0 3 4 0;
#X connect 0 4 5 0;
#X connect 0 5 6 0;
#X connect 0 6 7 0;
#X connect 0 7 8 0;
#X connect 1 0 10 0;
#X connect 2 0 10 0;
#X connect 3 0 10 0;
#X connect 4 0 10 0;
#X connect 5 0 10 0;
#X connect 6 0 10 0;
#X connect 7 0 10 0;
#X connect 8 0 10 0;
#X connect 9 0 0 0;
#X connect 11 0 1 1;
#X connect 12 0 2 1;
#X connect 13 0 3 1;
#X connect 14 0 4 1;
#X connect 15 0 5 1;
#X connect 16 0 6 1;
#X connect 17 0 7 1;
#X connect 18 0 8 1;
#X restore 168 175 pd step_selector;
#X f 96;
#X obj 40 137 inlet;
#X obj 251 139 r \$0-s0;
#N canvas 122 231 1005 503 step_selector 0;
#X obj 59 143 sel 0 1 2 3 4 5 6 7, f 96;
#X obj 59 207 int;
#X obj 143 206 int;
#X obj 227 207 int;
#X obj 310 207 int;
#X obj 393 206 int;
#X obj 477 205 int;
#X obj 560 206 int;
#X obj 644 205 int;
#X obj 59 110 inlet;
#X obj 358 288 outlet;
#X obj 77 170 inlet;
#X obj 161 170 inlet;
#X obj 245 170 inlet;
#X obj 328 172 inlet;
#X obj 411 169 inlet;
#X obj 494 172 inlet;
#X obj 578 171 inlet;
#X obj 662 172 inlet;
#X connect 0 0 1 0;
#X connect 0 1 2 0;
#X connect 0 2 3 0;
#X connect 0 3 4 0;
#X connect 0 4 5 0;
#X connect 0 5 6 0;
#X connect 0 6 7 0;
#X connect 0 7 8 0;
#X connect 1 0 10 0;
#X connect 2 0 10 0;
#X connect 3 0 10 0;
#X connect 4 0 10 0;
#X connect 5 0 10 0;
#X connect 6 0 10 0;
#X connect 7 0 10 0;
#X connect 8 0 10 0;
#X connect 9 0 0 0;
#X connect 11 0 1 1;
#X connect 12 0 2 1;
#X connect 13 0 3 1;
#X connect 14 0 4 1;
#X connect 15 0 5 1;
#X connect 16 0 6 1;
#X connect 17 0 7 1;
#X connect 18 0 8 1;
#X restore 169 246 pd step_selector;
#X f 96;
#X obj 23 50 tgl 15 0 \$0-s10 empty empty 17 7 0 10 -262144 -1 -1 0
1;
#X obj 38 50 tgl 15 0 \$0-s11 empty empty 17 7 0 10 -262144 -1 -1 1
1;
#X obj 53 50 tgl 15 0 \$0-s12 empty empty 17 7 0 10 -262144 -1 -1 0
1;
#X obj 67 50 tgl 15 0 \$0-s13 empty empty 17 7 0 10 -262144 -1 -1 0
1;
#X obj 82 50 tgl 15 0 \$0-s14 empty empty 17 7 0 10 -262144 -1 -1 0
1;
#X obj 97 50 tgl 15 0 \$0-s15 empty empty 17 7 0 10 -262144 -1 -1 0
1;
#X obj 112 50 tgl 15 0 \$0-s16 empty empty 17 7 0 10 -262144 -1 -1
0 1;
#X obj 127 50 tgl 15 0 \$0-s17 empty empty 17 7 0 10 -262144 -1 -1
0 1;
#X obj 252 216 r \$0-s10;
#X obj 334 139 r \$0-s1;
#X obj 418 139 r \$0-s2;
#X obj 502 143 r \$0-s3;
#X obj 586 141 r \$0-s4;
#X obj 669 142 r \$0-s5;
#X obj 753 142 r \$0-s6;
#X obj 836 142 r \$0-s7;
#X obj 22 73 tgl 15 0 \$0-s20 empty empty 17 7 0 10 -262144 -1 -1 0
1;
#X obj 37 73 tgl 15 0 \$0-s21 empty empty 17 7 0 10 -262144 -1 -1 0
1;
#X obj 52 73 tgl 15 0 \$0-s22 empty empty 17 7 0 10 -262144 -1 -1 0
1;
#X obj 66 73 tgl 15 0 \$0-s23 empty empty 17 7 0 10 -262144 -1 -1 1
1;
#X obj 81 73 tgl 15 0 \$0-s24 empty empty 17 7 0 10 -262144 -1 -1 0
1;
#X obj 96 73 tgl 15 0 \$0-s25 empty empty 17 7 0 10 -262144 -1 -1 0
1;
#X obj 111 73 tgl 15 0 \$0-s26 empty empty 17 7 0 10 -262144 -1 -1
0 1;
#X obj 126 73 tgl 15 0 \$0-s27 empty empty 17 7 0 10 -262144 -1 -1
0 1;
#X obj 335 216 r \$0-s11;
#X obj 419 216 r \$0-s12;
#X obj 503 220 r \$0-s13;
#X obj 587 218 r \$0-s14;
#X obj 670 218 r \$0-s15;
#X obj 754 219 r \$0-s16;
#X obj 837 219 r \$0-s17;
#N canvas 122 231 1005 503 step_selector 0;
#X obj 59 143 sel 0 1 2 3 4 5 6 7, f 96;
#X obj 59 207 int;
#X obj 143 206 int;
#X obj 227 207 int;
#X obj 310 207 int;
#X obj 393 206 int;
#X obj 477 205 int;
#X obj 560 206 int;
#X obj 644 205 int;
#X obj 59 110 inlet;
#X obj 358 288 outlet;
#X obj 77 170 inlet;
#X obj 161 170 inlet;
#X obj 245 170 inlet;
#X obj 328 172 inlet;
#X obj 411 169 inlet;
#X obj 494 172 inlet;
#X obj 578 171 inlet;
#X obj 662 172 inlet;
#X connect 0 0 1 0;
#X connect 0 1 2 0;
#X connect 0 2 3 0;
#X connect 0 3 4 0;
#X connect 0 4 5 0;
#X connect 0 5 6 0;
#X connect 0 6 7 0;
#X connect 0 7 8 0;
#X connect 1 0 10 0;
#X connect 2 0 10 0;
#X connect 3 0 10 0;
#X connect 4 0 10 0;
#X connect 5 0 10 0;
#X connect 6 0 10 0;
#X connect 7 0 10 0;
#X connect 8 0 10 0;
#X connect 9 0 0 0;
#X connect 11 0 1 1;
#X connect 12 0 2 1;
#X connect 13 0 3 1;
#X connect 14 0 4 1;
#X connect 15 0 5 1;
#X connect 16 0 6 1;
#X connect 17 0 7 1;
#X connect 18 0 8 1;
#X restore 172 366 pd step_selector;
#X f 96;
#X obj 256 324 r \$0-s20;
#X obj 339 324 r \$0-s21;
#X obj 423 324 r \$0-s22;
#X obj 507 328 r \$0-s23;
#X obj 591 326 r \$0-s24;
#X obj 674 326 r \$0-s25;
#X obj 758 327 r \$0-s26;
#X obj 841 327 r \$0-s27;
#X obj 23 96 tgl 15 0 \$0-s30 empty empty 17 7 0 10 -262144 -1 -1 0
1;
#X obj 38 96 tgl 15 0 \$0-s31 empty empty 17 7 0 10 -262144 -1 -1 1
1;
#X obj 53 96 tgl 15 0 \$0-s32 empty empty 17 7 0 10 -262144 -1 -1 0
1;
#X obj 67 96 tgl 15 0 \$0-s33 empty empty 17 7 0 10 -262144 -1 -1 0
1;
#X obj 82 96 tgl 15 0 \$0-s34 empty empty 17 7 0 10 -262144 -1 -1 0
1;
#X obj 97 96 tgl 15 0 \$0-s35 empty empty 17 7 0 10 -262144 -1 -1 0
1;
#X obj 112 96 tgl 15 0 \$0-s36 empty empty 17 7 0 10 -262144 -1 -1
1 1;
#X obj 127 96 tgl 15 0 \$0-s37 empty empty 17 7 0 10 -262144 -1 -1
0 1;
#N canvas 122 231 1005 503 step_selector 0;
#X obj 59 143 sel 0 1 2 3 4 5 6 7, f 96;
#X obj 59 207 int;
#X obj 143 206 int;
#X obj 227 207 int;
#X obj 310 207 int;
#X obj 393 206 int;
#X obj 477 205 int;
#X obj 560 206 int;
#X obj 644 205 int;
#X obj 59 110 inlet;
#X obj 358 288 outlet;
#X obj 77 170 inlet;
#X obj 161 170 inlet;
#X obj 245 170 inlet;
#X obj 328 172 inlet;
#X obj 411 169 inlet;
#X obj 494 172 inlet;
#X obj 578 171 inlet;
#X obj 662 172 inlet;
#X connect 0 0 1 0;
#X connect 0 1 2 0;
#X connect 0 2 3 0;
#X connect 0 3 4 0;
#X connect 0 4 5 0;
#X connect 0 5 6 0;
#X connect 0 6 7 0;
#X connect 0 7 8 0;
#X connect 1 0 10 0;
#X connect 2 0 10 0;
#X connect 3 0 10 0;
#X connect 4 0 10 0;
#X connect 5 0 10 0;
#X connect 6 0 10 0;
#X connect 7 0 10 0;
#X connect 8 0 10 0;
#X connect 9 0 0 0;
#X connect 11 0 1 1;
#X connect 12 0 2 1;
#X connect 13 0 3 1;
#X connect 14 0 4 1;
#X connect 15 0 5 1;
#X connect 16 0 6 1;
#X connect 17 0 7 1;
#X connect 18 0 8 1;
#X restore 162 483 pd step_selector;
#X f 96;
#X obj 245 447 r \$0-s30;
#X obj 328 447 r \$0-s31;
#X obj 412 447 r \$0-s32;
#X obj 496 451 r \$0-s33;
#X obj 580 449 r \$0-s34;
#X obj 663 448 r \$0-s35;
#X obj 747 450 r \$0-s36;
#X obj 830 450 r \$0-s37;
#X obj 122 643 sel 1;
#X obj 122 603 r o1-\$0;
#X obj 224 641 sel 1;
#X obj 321 641 sel 1;
#X obj 429 641 sel 1;
#X obj 224 601 r o2-\$0;
#X obj 321 601 r o3-\$0;
#X obj 429 601 r o4-\$0;
#X obj 168 201 s o1-\$0;
#X obj 169 284 s o2-\$0;
#X obj 172 396 s o3-\$0;
#X obj 162 513 s o4-\$0;
#X obj 122 681 s sample_00;
#X obj 223 679 s sample_01;
#X obj 321 679 s sample_02;
#X obj 429 679 s sample_03;
#X connect 8 0 77 0;
#X connect 9 0 8 0;
#X connect 9 0 11 0;
#X connect 9 0 43 0;
#X connect 9 0 60 0;
#X connect 10 0 8 1;
#X connect 11 0 78 0;
#X connect 20 0 11 1;
#X connect 21 0 8 2;
#X connect 22 0 8 3;
#X connect 23 0 8 4;
#X connect 24 0 8 5;
#X connect 25 0 8 6;
#X connect 26 0 8 7;
#X connect 27 0 8 8;
#X connect 36 0 11 2;
#X connect 37 0 11 3;
#X connect 38 0 11 4;
#X connect 39 0 11 5;
#X connect 40 0 11 6;
#X connect 41 0 11 7;
#X connect 42 0 11 8;
#X connect 43 0 79 0;
#X connect 44 0 43 1;
#X connect 45 0 43 2;
#X connect 46 0 43 3;
#X connect 47 0 43 4;
#X connect 48 0 43 5;
#X connect 49 0 43 6;
#X connect 50 0 43 7;
#X connect 51 0 43 8;
#X connect 60 0 80 0;
#X connect 61 0 60 1;
#X connect 62 0 60 2;
#X connect 63 0 60 3;
#X connect 64 0 60 4;
#X connect 65 0 60 5;
#X connect 66 0 60 6;
#X connect 67 0 60 7;
#X connect 68 0 60 8;
#X connect 69 0 81 0;
#X connect 70 0 69 0;
#X connect 71 0 82 0;
#X connect 72 0 83 0;
#X connect 73 0 84 0;
#X connect 74 0 71 0;
#X connect 75 0 72 0;
#X connect 76 0 73 0;
#X coords 0 -1 1 1 126 100 2 20 20;
