#N canvas 360 174 1180 720 12;
#X obj 24 59 tgl 25 0 \$0-s0 empty empty 17 7 0 10 -262144 -1 -1 0
1;
#X obj 49 59 tgl 25 0 \$0-s1 empty empty 17 7 0 10 -262144 -1 -1 0
1;
#X obj 74 59 tgl 25 0 \$0-s2 empty empty 17 7 0 10 -262144 -1 -1 0
1;
#X obj 99 59 tgl 25 0 \$0-s3 empty empty 17 7 0 10 -262144 -1 -1 0
1;
#X obj 124 59 tgl 25 0 \$0-s4 empty empty 17 7 0 10 -262144 -1 -1 0
1;
#X obj 149 59 tgl 25 0 \$0-s5 empty empty 17 7 0 10 -262144 -1 -1 0
1;
#X obj 174 59 tgl 25 0 \$0-s6 empty empty 17 7 0 10 -262144 -1 -1 0
1;
#X obj 199 59 tgl 25 0 \$0-s7 empty empty 17 7 0 10 -262144 -1 -1 0
1;
#N canvas 122 231 1005 503 step_selector 0;
#X obj 59 143 sel 0 1 2 3 4 5 6 7, f 96;
#X obj 59 207 int;
#X obj 143 206 int;
#X obj 227 207 int;
#X obj 310 207 int;
#X obj 393 206 int;
#X obj 477 205 int;
#X obj 560 206 int;
#X obj 644 205 int;
#X obj 59 110 inlet;
#X obj 358 288 outlet;
#X obj 77 170 inlet;
#X obj 161 170 inlet;
#X obj 245 170 inlet;
#X obj 328 172 inlet;
#X obj 411 169 inlet;
#X obj 494 172 inlet;
#X obj 578 171 inlet;
#X obj 662 172 inlet;
#X connect 0 0 1 0;
#X connect 0 1 2 0;
#X connect 0 2 3 0;
#X connect 0 3 4 0;
#X connect 0 4 5 0;
#X connect 0 5 6 0;
#X connect 0 6 7 0;
#X connect 0 7 8 0;
#X connect 1 0 10 0;
#X connect 2 0 10 0;
#X connect 3 0 10 0;
#X connect 4 0 10 0;
#X connect 5 0 10 0;
#X connect 6 0 10 0;
#X connect 7 0 10 0;
#X connect 8 0 10 0;
#X connect 9 0 0 0;
#X connect 11 0 1 1;
#X connect 12 0 2 1;
#X connect 13 0 3 1;
#X connect 14 0 4 1;
#X connect 15 0 5 1;
#X connect 16 0 6 1;
#X connect 17 0 7 1;
#X connect 18 0 8 1;
#X restore 319 177 pd step_selector;
#X f 96;
#X obj 402 141 r \$0-s0;
#N canvas 122 231 1005 503 step_selector 0;
#X obj 59 143 sel 0 1 2 3 4 5 6 7, f 96;
#X obj 59 207 int;
#X obj 143 206 int;
#X obj 227 207 int;
#X obj 310 207 int;
#X obj 393 206 int;
#X obj 477 205 int;
#X obj 560 206 int;
#X obj 644 205 int;
#X obj 59 110 inlet;
#X obj 358 288 outlet;
#X obj 77 170 inlet;
#X obj 161 170 inlet;
#X obj 245 170 inlet;
#X obj 328 172 inlet;
#X obj 411 169 inlet;
#X obj 494 172 inlet;
#X obj 578 171 inlet;
#X obj 662 172 inlet;
#X connect 0 0 1 0;
#X connect 0 1 2 0;
#X connect 0 2 3 0;
#X connect 0 3 4 0;
#X connect 0 4 5 0;
#X connect 0 5 6 0;
#X connect 0 6 7 0;
#X connect 0 7 8 0;
#X connect 1 0 10 0;
#X connect 2 0 10 0;
#X connect 3 0 10 0;
#X connect 4 0 10 0;
#X connect 5 0 10 0;
#X connect 6 0 10 0;
#X connect 7 0 10 0;
#X connect 8 0 10 0;
#X connect 9 0 0 0;
#X connect 11 0 1 1;
#X connect 12 0 2 1;
#X connect 13 0 3 1;
#X connect 14 0 4 1;
#X connect 15 0 5 1;
#X connect 16 0 6 1;
#X connect 17 0 7 1;
#X connect 18 0 8 1;
#X restore 320 248 pd step_selector;
#X f 96;
#X obj 24 87 tgl 25 0 \$0-s10 empty empty 17 7 0 10 -262144 -1 -1 0
1;
#X obj 49 87 tgl 25 0 \$0-s11 empty empty 17 7 0 10 -262144 -1 -1 0
1;
#X obj 74 87 tgl 25 0 \$0-s12 empty empty 17 7 0 10 -262144 -1 -1 0
1;
#X obj 99 87 tgl 25 0 \$0-s13 empty empty 17 7 0 10 -262144 -1 -1 0
1;
#X obj 124 87 tgl 25 0 \$0-s14 empty empty 17 7 0 10 -262144 -1 -1
0 1;
#X obj 149 87 tgl 25 0 \$0-s15 empty empty 17 7 0 10 -262144 -1 -1
0 1;
#X obj 174 87 tgl 25 0 \$0-s16 empty empty 17 7 0 10 -262144 -1 -1
0 1;
#X obj 199 87 tgl 25 0 \$0-s17 empty empty 17 7 0 10 -262144 -1 -1
0 1;
#X obj 403 218 r \$0-s10;
#X obj 485 141 r \$0-s1;
#X obj 569 141 r \$0-s2;
#X obj 653 145 r \$0-s3;
#X obj 737 143 r \$0-s4;
#X obj 820 144 r \$0-s5;
#X obj 904 144 r \$0-s6;
#X obj 987 144 r \$0-s7;
#X obj 24 115 tgl 25 0 \$0-s20 empty empty 17 7 0 10 -262144 -1 -1
0 1;
#X obj 49 115 tgl 25 0 \$0-s21 empty empty 17 7 0 10 -262144 -1 -1
0 1;
#X obj 74 115 tgl 25 0 \$0-s22 empty empty 17 7 0 10 -262144 -1 -1
0 1;
#X obj 99 115 tgl 25 0 \$0-s23 empty empty 17 7 0 10 -262144 -1 -1
0 1;
#X obj 124 115 tgl 25 0 \$0-s24 empty empty 17 7 0 10 -262144 -1 -1
0 1;
#X obj 149 115 tgl 25 0 \$0-s25 empty empty 17 7 0 10 -262144 -1 -1
0 1;
#X obj 174 115 tgl 25 0 \$0-s26 empty empty 17 7 0 10 -262144 -1 -1
0 1;
#X obj 199 115 tgl 25 0 \$0-s27 empty empty 17 7 0 10 -262144 -1 -1
0 1;
#X obj 486 218 r \$0-s11;
#X obj 570 218 r \$0-s12;
#X obj 654 222 r \$0-s13;
#X obj 738 220 r \$0-s14;
#X obj 821 220 r \$0-s15;
#X obj 905 221 r \$0-s16;
#X obj 988 221 r \$0-s17;
#N canvas 122 231 1005 503 step_selector 0;
#X obj 59 143 sel 0 1 2 3 4 5 6 7, f 96;
#X obj 59 207 int;
#X obj 143 206 int;
#X obj 227 207 int;
#X obj 310 207 int;
#X obj 393 206 int;
#X obj 477 205 int;
#X obj 560 206 int;
#X obj 644 205 int;
#X obj 59 110 inlet;
#X obj 358 288 outlet;
#X obj 77 170 inlet;
#X obj 161 170 inlet;
#X obj 245 170 inlet;
#X obj 328 172 inlet;
#X obj 411 169 inlet;
#X obj 494 172 inlet;
#X obj 578 171 inlet;
#X obj 662 172 inlet;
#X connect 0 0 1 0;
#X connect 0 1 2 0;
#X connect 0 2 3 0;
#X connect 0 3 4 0;
#X connect 0 4 5 0;
#X connect 0 5 6 0;
#X connect 0 6 7 0;
#X connect 0 7 8 0;
#X connect 1 0 10 0;
#X connect 2 0 10 0;
#X connect 3 0 10 0;
#X connect 4 0 10 0;
#X connect 5 0 10 0;
#X connect 6 0 10 0;
#X connect 7 0 10 0;
#X connect 8 0 10 0;
#X connect 9 0 0 0;
#X connect 11 0 1 1;
#X connect 12 0 2 1;
#X connect 13 0 3 1;
#X connect 14 0 4 1;
#X connect 15 0 5 1;
#X connect 16 0 6 1;
#X connect 17 0 7 1;
#X connect 18 0 8 1;
#X restore 323 368 pd step_selector;
#X f 96;
#X obj 407 326 r \$0-s20;
#X obj 490 326 r \$0-s21;
#X obj 574 326 r \$0-s22;
#X obj 658 330 r \$0-s23;
#X obj 742 328 r \$0-s24;
#X obj 825 328 r \$0-s25;
#X obj 909 329 r \$0-s26;
#X obj 992 329 r \$0-s27;
#X obj 24 144 tgl 25 0 \$0-s30 empty empty 17 7 0 10 -262144 -1 -1
0 1;
#X obj 49 144 tgl 25 0 \$0-s31 empty empty 17 7 0 10 -262144 -1 -1
0 1;
#X obj 74 144 tgl 25 0 \$0-s32 empty empty 17 7 0 10 -262144 -1 -1
0 1;
#X obj 99 144 tgl 25 0 \$0-s33 empty empty 17 7 0 10 -262144 -1 -1
0 1;
#X obj 124 144 tgl 25 0 \$0-s34 empty empty 17 7 0 10 -262144 -1 -1
0 1;
#X obj 149 144 tgl 25 0 \$0-s35 empty empty 17 7 0 10 -262144 -1 -1
0 1;
#X obj 174 144 tgl 25 0 \$0-s36 empty empty 17 7 0 10 -262144 -1 -1
0 1;
#X obj 199 144 tgl 25 0 \$0-s37 empty empty 17 7 0 10 -262144 -1 -1
0 1;
#N canvas 122 231 1005 503 step_selector 0;
#X obj 59 143 sel 0 1 2 3 4 5 6 7, f 96;
#X obj 59 207 int;
#X obj 143 206 int;
#X obj 227 207 int;
#X obj 310 207 int;
#X obj 393 206 int;
#X obj 477 205 int;
#X obj 560 206 int;
#X obj 644 205 int;
#X obj 59 110 inlet;
#X obj 358 288 outlet;
#X obj 77 170 inlet;
#X obj 161 170 inlet;
#X obj 245 170 inlet;
#X obj 328 172 inlet;
#X obj 411 169 inlet;
#X obj 494 172 inlet;
#X obj 578 171 inlet;
#X obj 662 172 inlet;
#X connect 0 0 1 0;
#X connect 0 1 2 0;
#X connect 0 2 3 0;
#X connect 0 3 4 0;
#X connect 0 4 5 0;
#X connect 0 5 6 0;
#X connect 0 6 7 0;
#X connect 0 7 8 0;
#X connect 1 0 10 0;
#X connect 2 0 10 0;
#X connect 3 0 10 0;
#X connect 4 0 10 0;
#X connect 5 0 10 0;
#X connect 6 0 10 0;
#X connect 7 0 10 0;
#X connect 8 0 10 0;
#X connect 9 0 0 0;
#X connect 11 0 1 1;
#X connect 12 0 2 1;
#X connect 13 0 3 1;
#X connect 14 0 4 1;
#X connect 15 0 5 1;
#X connect 16 0 6 1;
#X connect 17 0 7 1;
#X connect 18 0 8 1;
#X restore 313 485 pd step_selector;
#X f 96;
#X obj 396 449 r \$0-s30;
#X obj 479 449 r \$0-s31;
#X obj 563 449 r \$0-s32;
#X obj 647 453 r \$0-s33;
#X obj 731 451 r \$0-s34;
#X obj 814 450 r \$0-s35;
#X obj 898 452 r \$0-s36;
#X obj 981 452 r \$0-s37;
#X obj 273 645 sel 1;
#X obj 273 605 r o1-\$0;
#X obj 375 643 sel 1;
#X obj 472 643 sel 1;
#X obj 580 643 sel 1;
#X obj 375 603 r o2-\$0;
#X obj 472 603 r o3-\$0;
#X obj 580 603 r o4-\$0;
#X obj 319 203 s o1-\$0;
#X obj 320 286 s o2-\$0;
#X obj 323 398 s o3-\$0;
#X obj 313 515 s o4-\$0;
#X obj 273 683 s sample_00;
#X obj 374 681 s sample_01;
#X obj 472 681 s sample_02;
#X obj 580 681 s sample_03;
#X obj 24 30 hradio 25 1 0 8 \$0-seq_steps_internal seq_steps empty
0 -8 0 10 -162280 -1 -1 1;
#X obj 238 98 r \$0-seq_steps_internal;
#X connect 8 0 76 0;
#X connect 9 0 8 1;
#X connect 10 0 77 0;
#X connect 19 0 10 1;
#X connect 20 0 8 2;
#X connect 21 0 8 3;
#X connect 22 0 8 4;
#X connect 23 0 8 5;
#X connect 24 0 8 6;
#X connect 25 0 8 7;
#X connect 26 0 8 8;
#X connect 35 0 10 2;
#X connect 36 0 10 3;
#X connect 37 0 10 4;
#X connect 38 0 10 5;
#X connect 39 0 10 6;
#X connect 40 0 10 7;
#X connect 41 0 10 8;
#X connect 42 0 78 0;
#X connect 43 0 42 1;
#X connect 44 0 42 2;
#X connect 45 0 42 3;
#X connect 46 0 42 4;
#X connect 47 0 42 5;
#X connect 48 0 42 6;
#X connect 49 0 42 7;
#X connect 50 0 42 8;
#X connect 59 0 79 0;
#X connect 60 0 59 1;
#X connect 61 0 59 2;
#X connect 62 0 59 3;
#X connect 63 0 59 4;
#X connect 64 0 59 5;
#X connect 65 0 59 6;
#X connect 66 0 59 7;
#X connect 67 0 59 8;
#X connect 68 0 80 0;
#X connect 69 0 68 0;
#X connect 70 0 81 0;
#X connect 71 0 82 0;
#X connect 72 0 83 0;
#X connect 73 0 70 0;
#X connect 74 0 71 0;
#X connect 75 0 72 0;
#X connect 85 0 8 0;
#X connect 85 0 10 0;
#X connect 85 0 42 0;
#X connect 85 0 59 0;
#X coords 0 -1 1 1 210 160 2 20 20;
