#N canvas 738 214 714 596 12;
#X obj 21 91 cnv 15 298 198 empty empty empty 20 12 0 14 -233017 -66577
0;
#X obj 249 436 dac~;
#X obj 266 67 sig~ 1;
#X obj 266 100 upf.gain~;
#X obj 238 383 *~;
#X text 257 260 master;
#X obj 256 240 upf.pan~;
#X obj 283 383 *~;
#X obj 141 439 throw~ out_l;
#X obj 309 437 throw~ out_r;
#X obj 92 338 catch~ synth_l;
#X obj 321 333 catch~ synth_r;
#X obj 331 7 r in_volume;
#X obj 331 37 * 100;
#X obj 331 65 lin_smooth;
#X obj 203 101 upf.gain~;
#X obj 193 241 upf.pan~;
#X obj 144 101 upf.gain~;
#X obj 134 241 upf.pan~;
#X text 135 261 back l;
#X text 194 261 back r;
#X obj 67 66 catch~ med_l;
#X obj 163 66 catch~ med_r;
#X connect 2 0 3 0;
#X connect 3 0 6 0;
#X connect 4 0 1 0;
#X connect 4 0 8 0;
#X connect 6 0 4 1;
#X connect 6 1 7 1;
#X connect 7 0 1 1;
#X connect 7 0 9 0;
#X connect 10 0 4 0;
#X connect 11 0 7 0;
#X connect 12 0 13 0;
#X connect 13 0 14 0;
#X connect 14 0 3 1;
#X connect 15 0 16 0;
#X connect 16 0 4 0;
#X connect 16 1 7 0;
#X connect 17 0 18 0;
#X connect 18 0 4 0;
#X connect 18 1 7 0;
#X connect 21 0 17 0;
#X connect 22 0 15 0;
#X coords 0 -1 1 1 300 200 2 20 90;
