#N canvas 738 214 714 596 12;
#X obj 21 91 cnv 15 298 198 empty empty empty 20 12 0 14 -233017 -66577
0;
#X obj 349 536 dac~;
#X obj 27 50 catch~ sign_00;
#X obj 139 49 catch~ sign_01;
#X obj 252 48 catch~ sign_02;
#X obj 364 47 catch~ sign_03;
#X obj 37 100 upf.gain~;
#X obj 90 100 upf.gain~;
#X obj 142 100 upf.gain~;
#X obj 194 100 upf.gain~;
#X obj 318 67 sig~ 1;
#X obj 266 100 upf.gain~;
#X obj 338 483 *~;
#X text 257 260 master;
#X text 38 260 ch1;
#X text 89 260 ch2;
#X text 142 261 ch3;
#X text 197 260 ch4;
#X obj 28 240 upf.pan~;
#X obj 132 240 upf.pan~;
#X obj 80 240 upf.pan~;
#X obj 184 240 upf.pan~;
#X obj 256 240 upf.pan~;
#X obj 383 483 *~;
#X obj 28 324 throw~ \$0-l_ch;
#X obj 153 324 throw~ \$0-r_ch;
#X obj 299 434 catch~ \$0-l_ch;
#X obj 425 434 catch~ \$0-r_ch;
#X obj 241 539 throw~ out_l;
#X obj 409 537 throw~ out_r;
#X obj 183 432 catch~ synth_l;
#X obj 538 434 catch~ synth_r;
#X obj 545 30 r in_volume;
#X obj 545 65 * 100;
#X obj 508 90 lin_smooth;
#X connect 2 0 6 0;
#X connect 3 0 7 0;
#X connect 4 0 8 0;
#X connect 5 0 9 0;
#X connect 6 0 18 0;
#X connect 7 0 20 0;
#X connect 8 0 19 0;
#X connect 9 0 21 0;
#X connect 10 0 11 0;
#X connect 11 0 22 0;
#X connect 12 0 1 0;
#X connect 12 0 28 0;
#X connect 18 0 24 0;
#X connect 18 1 25 0;
#X connect 19 0 24 0;
#X connect 19 1 25 0;
#X connect 20 0 24 0;
#X connect 20 1 25 0;
#X connect 21 0 24 0;
#X connect 21 1 25 0;
#X connect 22 0 12 1;
#X connect 22 1 23 1;
#X connect 23 0 1 1;
#X connect 23 0 29 0;
#X connect 26 0 12 0;
#X connect 27 0 23 0;
#X connect 30 0 12 0;
#X connect 31 0 23 0;
#X connect 32 0 33 0;
#X connect 33 0 34 0;
#X connect 34 0 11 1;
#X coords 0 -1 1 1 300 200 2 20 90;
