#N canvas 503 73 757 601 12;
#X declare -path ./../abstractions;
#X declare -path ./../abstractions/drum_machine;
#X declare -path ./../abstractions/synth;
#X declare -path ./../abstractions/markov;
#X declare -path ./../externals/automatism;
#X declare -path ./../abstractions/final;
#X obj 9 33 cnv 15 732 520 empty empty empty 20 12 0 14 -228856 -66577
0;
#N canvas 333 76 1027 419 midi 0;
#X obj 274 61 notein, f 16;
#X obj 274 114 pack 0 0;
#X obj 275 212 s midi_note;
#X obj 102 115 r midi_note_sequencer;
#X obj 363 114 r midi_note_markov;
#X obj 727 116 r midi_cc_markov;
#X obj 611 291 s pan_midi_internal;
#X obj 756 292 s wet_internal;
#X obj 727 157 route 0 1 2;
#X obj 865 292 s feed_internal;
#X obj 546 113 r client_note;
#X connect 0 0 1 0;
#X connect 0 1 1 1;
#X connect 1 0 2 0;
#X connect 3 0 2 0;
#X connect 4 0 2 0;
#X connect 8 0 6 0;
#X connect 8 1 7 0;
#X connect 8 2 9 0;
#X connect 10 0 2 0;
#X restore 634 560 pd midi;
#N canvas 0 23 1042 440 engine 0;
#X obj 43 19 r midi_note;
#X obj 42 101 upf.midi_route, f 49;
#X obj 179 320 throw~ synth;
#X obj 179 246 upf.delay~;
#X obj 727 164 loadbang;
#X msg 726 197 \; pd dsp 1;
#X obj 42 163 upf.voices~;
#X obj 127 164 upf.voices~;
#X obj 211 165 upf.voices~;
#X obj 297 165 upf.voices~;
#X obj 382 165 upf.voices~;
#N canvas 0 23 679 502 antialiasing~ 0;
#X obj 21 269 *~ 0.125;
#X obj 21 292 rzero~ -1;
#X obj 21 315 rzero~ -1;
#X obj 21 338 rzero~ -1;
#X obj 204 29 block~ 1024 1 16;
#X obj 21 372 outlet~;
#X obj 20 166 rpole~ 0.87467;
#X obj 20 143 *~ 0.12532;
#X obj 20 189 *~ 0.01668;
#X obj 20 212 cpole~ 0.9293 0.10812;
#X obj 20 238 cpole~ 0.9293 -0.10812;
#X text 143 123 These objects make a 3-pole \, 3-zero Butterworth low-pass
filter with cutoff at 15kHz (assuming 16x44100 sample rate). The filter
was designed using the "buttercoef3" abstraction introduced in patch
H13.butterworth.pd in this series.;
#X obj 21 31 inlet~;
#X connect 0 0 1 0;
#X connect 1 0 2 0;
#X connect 2 0 3 0;
#X connect 3 0 5 0;
#X connect 6 0 8 0;
#X connect 7 0 6 0;
#X connect 8 0 9 0;
#X connect 9 0 10 0;
#X connect 9 1 10 1;
#X connect 10 0 0 0;
#X connect 12 0 7 0;
#X restore 179 282 pd antialiasing~;
#X obj 479 165 upf.meditation, f 17;
#X obj 477 322 throw~ med_l;
#X obj 595 322 throw~ med_r;
#X obj 479 98 r med_freeze;
#X obj 597 98 r med_tempo;
#X obj 703 99 r med_scale;
#X connect 0 0 1 0;
#X connect 1 0 6 0;
#X connect 1 1 7 0;
#X connect 1 2 8 0;
#X connect 1 3 9 0;
#X connect 1 4 10 0;
#X connect 3 0 11 0;
#X connect 4 0 5 0;
#X connect 6 0 3 0;
#X connect 7 0 3 0;
#X connect 8 0 3 0;
#X connect 9 0 3 0;
#X connect 10 0 3 0;
#X connect 11 0 2 0;
#X connect 12 0 13 0;
#X connect 12 1 14 0;
#X connect 15 0 12 0;
#X connect 16 0 12 1;
#X connect 17 0 12 2;
#X restore 561 560 pd engine;
#X obj 430 344 upf.master_output~;
#X text 9 7 Bertola / Ronchini / Fernandez https://github.com/marcobertola/upf-cmc
, f 82;
#X obj 14 42 cnv 15 720 290 empty empty empty 20 12 0 14 -66577 -66577
0;
#X obj 19 48 cnv 15 710 278 empty empty empty 20 12 0 14 -261234 -66577
0;
#X obj 343 57 upf.envelope_ui;
#X obj 438 57 upf.delay_ui;
#X obj 576 58 upf.fm_ui;
#X obj 326 342 upf.mixer_synth;
#N canvas 56 65 1619 963 osc 0;
#X obj 46 177 oscparse;
#X obj 46 206 list trim;
#X msg 45 67 listen 1337;
#X obj 45 145 netreceive -u -b 1337;
#X obj 45 29 loadbang;
#X obj 128 387 queue 20;
#X obj 146 357 bng 15 250 50 0 empty empty empty 17 7 0 10 -262144
-1 -1;
#X obj 46 283 t b l, f 12;
#X obj 99 510 unpack 0 0 0 0 0 0 0 0 0 0 0 0 0 0 0 0 0 0 0 0 0 0 0
0 0, f 202;
#X obj 1335 599 s feed_internal;
#X obj 1334 555 / 127;
#X obj 46 245 route distance trigger;
#X obj 146 324 r t_event;
#N canvas 168 250 1166 396 harmonics 0;
#X obj 205 153 / 127;
#X obj 264 153 / 127;
#X obj 311 153 / 127;
#X obj 367 153 / 127;
#X obj 420 153 / 127;
#X obj 475 153 / 127;
#X obj 523 153 / 127;
#X obj 207 255 s harmonics;
#X obj 586 151 / 127;
#X obj 634 151 / 127;
#X obj 692 151 / 127;
#X obj 738 151 / 127;
#X obj 796 151 / 127;
#X obj 845 151 / 127;
#X obj 893 151 / 127;
#X obj 205 96 inlet;
#X obj 266 96 inlet;
#X obj 312 96 inlet;
#X obj 368 96 inlet;
#X obj 421 96 inlet;
#X obj 475 96 inlet;
#X obj 520 96 inlet;
#X obj 585 94 inlet;
#X obj 633 94 inlet;
#X obj 741 94 inlet;
#X obj 806 94 inlet;
#X obj 851 94 inlet;
#X obj 896 94 inlet;
#X obj 693 94 inlet;
#X obj 206 198 pack 0 0 0 0 0 0 0 0 0 0 0 0 0 0, f 99;
#X connect 0 0 29 0;
#X connect 1 0 29 1;
#X connect 2 0 29 2;
#X connect 3 0 29 3;
#X connect 4 0 29 4;
#X connect 5 0 29 5;
#X connect 6 0 29 6;
#X connect 8 0 29 7;
#X connect 9 0 29 8;
#X connect 10 0 29 9;
#X connect 11 0 29 10;
#X connect 12 0 29 11;
#X connect 13 0 29 12;
#X connect 14 0 29 13;
#X connect 15 0 0 0;
#X connect 16 0 1 0;
#X connect 17 0 2 0;
#X connect 18 0 3 0;
#X connect 19 0 4 0;
#X connect 20 0 5 0;
#X connect 21 0 6 0;
#X connect 22 0 8 0;
#X connect 23 0 9 0;
#X connect 24 0 11 0;
#X connect 25 0 12 0;
#X connect 26 0 13 0;
#X connect 27 0 14 0;
#X connect 28 0 10 0;
#X connect 29 0 7 0;
#X restore 392 541 pd harmonics;
#X f 110;
#N canvas 436 138 553 342 fm 0;
#X obj 67 164 s fm_mod;
#X obj 254 166 s fm_index;
#X obj 66 119 mco.scale 0 127 200 8000;
#X obj 254 119 mco.scale 0 127 1 4000;
#X obj 66 73 inlet;
#X obj 254 66 inlet;
#X connect 2 0 0 0;
#X connect 3 0 1 0;
#X connect 4 0 2 0;
#X connect 5 0 3 0;
#X restore 1217 547 pd fm;
#X f 9;
#N canvas 0 23 644 403 meditation 0;
#X obj 117 158 mco.scale 0 127 500 10000;
#X obj 118 226 s med_tempo;
#X obj 301 157 / 127;
#X obj 303 230 s med_freeze;
#X obj 118 98 inlet;
#X obj 300 94 inlet;
#X connect 0 0 1 0;
#X connect 2 0 3 0;
#X connect 4 0 0 0;
#X connect 5 0 2 0;
#X restore 1454 551 pd meditation;
#X f 14;
#N canvas 697 239 850 426 makenotes 0;
#X obj 33 166 makenote 100 1000, f 55;
#X obj 33 357 s client_note;
#X obj 33 293 pack 0 0;
#X obj 224 123 mco.scale 0 127 60 127 0;
#X obj 186 285 del 0;
#X obj 186 328 s t_event;
#X obj 185 227 t b;
#X obj 32 19 inlet;
#X obj 222 22 inlet;
#X obj 413 16 inlet;
#X obj 589 18 inlet;
#X obj 33 212 upf.scale_mapper;
#X obj 415 125 mco.scale 0 127 1000 3000;
#X obj 34 110 mco.scale 0 127 30 80 0;
#X obj 217 254 mco.scale 0 127 0 3000;
#X connect 0 0 11 0;
#X connect 0 1 2 1;
#X connect 0 1 6 0;
#X connect 2 0 1 0;
#X connect 3 0 0 1;
#X connect 4 0 5 0;
#X connect 6 0 4 0;
#X connect 7 0 13 0;
#X connect 8 0 3 0;
#X connect 9 0 12 0;
#X connect 10 0 14 0;
#X connect 11 0 2 0;
#X connect 12 0 0 2;
#X connect 13 0 0 0;
#X connect 14 0 4 1;
#X restore 99 550 pd makenotes;
#X f 26;
#N canvas 650 77 506 388 tgl_meditation 0;
#X obj 70 239 s mediation_velocity;
#X msg 23 190 0;
#X msg 158 172 1;
#X obj 20 163 del 1000;
#X obj 19 40 inlet;
#X obj 69 40 inlet;
#X obj 70 124 t b;
#X connect 1 0 0 0;
#X connect 2 0 0 0;
#X connect 3 0 1 0;
#X connect 4 0 3 0;
#X connect 5 0 6 0;
#X connect 6 0 2 0;
#X restore 181 439 pd tgl_meditation;
#X f 21;
#X obj 291 329 sel 0;
#X obj 503 29 declare -path ./../abstractions;
#X obj 503 50 declare -path ./../abstractions/drum_machine;
#X obj 503 72 declare -path ./../abstractions/synth;
#X obj 503 94 declare -path ./../abstractions/markov;
#X obj 503 117 declare -path ./../externals/automatism;
#X obj 503 140 declare -path ./../abstractions/final;
#X connect 0 0 1 0;
#X connect 1 0 11 0;
#X connect 2 0 3 0;
#X connect 3 0 0 0;
#X connect 4 0 2 0;
#X connect 5 0 8 0;
#X connect 5 2 17 0;
#X connect 6 0 5 0;
#X connect 7 1 5 0;
#X connect 8 0 16 0;
#X connect 8 1 16 1;
#X connect 8 2 16 2;
#X connect 8 3 16 3;
#X connect 8 5 13 0;
#X connect 8 6 13 1;
#X connect 8 7 13 2;
#X connect 8 8 13 3;
#X connect 8 9 13 4;
#X connect 8 10 13 5;
#X connect 8 11 13 6;
#X connect 8 12 13 7;
#X connect 8 13 13 8;
#X connect 8 14 13 9;
#X connect 8 15 13 10;
#X connect 8 16 13 11;
#X connect 8 17 13 12;
#X connect 8 18 13 13;
#X connect 8 19 14 0;
#X connect 8 20 14 1;
#X connect 8 21 10 0;
#X connect 8 23 15 0;
#X connect 8 24 15 1;
#X connect 10 0 9 0;
#X connect 11 0 7 0;
#X connect 11 1 18 0;
#X connect 12 0 6 0;
#X connect 18 0 6 0;
#X connect 18 1 17 1;
#X restore 692 560 pd osc;
#X obj 17 344 upf.sequencer_mixer_v2;
#X obj 24 57 upf.additive_ui;
